<svg width="30" height="30" viewBox="0 0 30 30" fill="none" xmlns="http://www.w3.org/2000/svg">
<g clip-path="url(#clip0_125_1208)">
<path d="M30 15.0003C30 14.1479 29.6353 13.3303 28.9861 12.7276C28.337 12.1248 27.4565 11.7861 26.5385 11.7861H16.1538V10.5808C17.1442 10.3419 18.0213 9.8048 18.6477 9.05352C19.2741 8.30223 19.6144 7.37924 19.6154 6.42912C19.6154 2.6792 15.8019 0.2806 15.6404 0.180156C15.4508 0.0626885 15.2279 0 15 0C14.7721 0 14.5492 0.0626885 14.3596 0.180156C14.1981 0.2806 10.3846 2.6792 10.3846 6.42912C10.3856 7.37924 10.7259 8.30223 11.3523 9.05352C11.9787 9.8048 12.8558 10.3419 13.8462 10.5808V11.7861H3.46154C2.54348 11.7861 1.66303 12.1248 1.01386 12.7276C0.364697 13.3303 0 14.1479 0 15.0003V18.1248C0.00118384 19.2936 0.405558 20.4313 1.15385 21.3712V26.7858C1.15385 27.6383 1.51854 28.4558 2.16771 29.0586C2.81687 29.6614 3.69733 30 4.61539 30H25.3846C26.3027 30 27.1831 29.6614 27.8323 29.0586C28.4815 28.4558 28.8462 27.6383 28.8462 26.7858V21.3712C29.5944 20.4313 29.9988 19.2936 30 18.1248V15.0003ZM12.6923 6.42912C12.6923 4.61175 14.1346 3.1533 15 2.43948C15.8654 3.1533 17.3077 4.61175 17.3077 6.42912C17.3077 6.99743 17.0646 7.54246 16.6318 7.94431C16.199 8.34617 15.612 8.57193 15 8.57193C14.388 8.57193 13.801 8.34617 13.3682 7.94431C12.9354 7.54246 12.6923 6.99743 12.6923 6.42912ZM2.30769 15.0003C2.30769 14.7162 2.42926 14.4437 2.64565 14.2428C2.86203 14.0418 3.15552 13.9289 3.46154 13.9289H26.5385C26.8445 13.9289 27.138 14.0418 27.3544 14.2428C27.5707 14.4437 27.6923 14.7162 27.6923 15.0003V18.1248C27.6923 19.8993 26.1837 21.3806 24.3288 21.4274C23.8662 21.4396 23.4056 21.3655 22.9744 21.2095C22.5431 21.0535 22.1499 20.8188 21.818 20.5193C21.4862 20.2197 21.2224 19.8614 21.0422 19.4656C20.8621 19.0697 20.7692 18.6443 20.7692 18.2146C20.7692 17.9304 20.6477 17.6579 20.4313 17.457C20.2149 17.256 19.9214 17.1432 19.6154 17.1432C19.3094 17.1432 19.0159 17.256 18.7995 17.457C18.5831 17.6579 18.4615 17.9304 18.4615 18.2146C18.4615 19.067 18.0968 19.8846 17.4477 20.4874C16.7985 21.0901 15.9181 21.4288 15 21.4288C14.0819 21.4288 13.2015 21.0901 12.5523 20.4874C11.9032 19.8846 11.5385 19.067 11.5385 18.2146C11.5385 17.9304 11.4169 17.6579 11.2005 17.457C10.9841 17.256 10.6906 17.1432 10.3846 17.1432C10.0786 17.1432 9.78511 17.256 9.56872 17.457C9.35234 17.6579 9.23077 17.9304 9.23077 18.2146C9.23096 18.6444 9.13828 19.07 8.95822 19.466C8.77816 19.862 8.51438 20.2205 8.18248 20.5202C7.85059 20.8199 7.45733 21.0547 7.02597 21.2107C6.59461 21.3668 6.13392 21.441 5.67115 21.4288C3.81635 21.3806 2.30769 19.8993 2.30769 18.1248V15.0003ZM25.3846 27.8572H4.61539C4.30937 27.8572 4.01588 27.7443 3.79949 27.5434C3.5831 27.3425 3.46154 27.0699 3.46154 26.7858V23.1109C4.13695 23.3951 4.86649 23.5517 5.60769 23.5716C6.37883 23.5938 7.14685 23.4711 7.86563 23.2109C8.5844 22.9506 9.2391 22.558 9.79038 22.0569C10.0056 21.8621 10.2043 21.6521 10.3846 21.4288C10.922 22.0941 11.6188 22.6341 12.4199 23.006C13.221 23.3779 14.1044 23.5716 15 23.5716C15.8956 23.5716 16.779 23.3779 17.5801 23.006C18.3812 22.6341 19.078 22.0941 19.6154 21.4288C19.7963 21.6512 19.9954 21.8603 20.2111 22.0542C21.2844 23.0305 22.7283 23.5755 24.2308 23.5716H24.3952C25.1354 23.5513 25.8639 23.3947 26.5385 23.1109V26.7858C26.5385 27.0699 26.4169 27.3425 26.2005 27.5434C25.9841 27.7443 25.6906 27.8572 25.3846 27.8572Z" fill="#0D272C"/>
</g>
<defs>
<clipPath id="clip0_125_1208">
<rect width="30" height="30" fill="white"/>
</clipPath>
</defs>
</svg>
