<svg width="30" height="30" viewBox="0 0 30 30" fill="none" xmlns="http://www.w3.org/2000/svg">
<path d="M7.49875 13.125C7.99603 13.125 8.47294 12.9275 8.82457 12.5758C9.1762 12.2242 9.37375 11.7473 9.37375 11.25C9.37375 10.7527 9.1762 10.2758 8.82457 9.92417C8.47294 9.57254 7.99603 9.375 7.49875 9.375C7.00147 9.375 6.52455 9.57254 6.17292 9.92417C5.82129 10.2758 5.62375 10.7527 5.62375 11.25C5.62375 11.7473 5.82129 12.2242 6.17292 12.5758C6.52455 12.9275 7.00147 13.125 7.49875 13.125ZM14.9987 16.875C15.496 16.875 15.9729 16.6775 16.3246 16.3258C16.6762 15.9742 16.8737 15.4973 16.8737 15C16.8737 14.5027 16.6762 14.0258 16.3246 13.6742C15.9729 13.3225 15.496 13.125 14.9987 13.125C14.5015 13.125 14.0246 13.3225 13.6729 13.6742C13.3213 14.0258 13.1237 14.5027 13.1237 15C13.1237 15.4973 13.3213 15.9742 13.6729 16.3258C14.0246 16.6775 14.5015 16.875 14.9987 16.875ZM20.6237 22.5C20.6237 22.9973 20.4262 23.4742 20.0746 23.8258C19.7229 24.1774 19.246 24.375 18.7487 24.375C18.2515 24.375 17.7745 24.1774 17.4229 23.8258C17.0713 23.4742 16.8737 22.9973 16.8737 22.5C16.8737 22.0027 17.0713 21.5258 17.4229 21.1742C17.7745 20.8225 18.2515 20.625 18.7487 20.625C19.246 20.625 19.7229 20.8225 20.0746 21.1742C20.4262 21.5258 20.6237 22.0027 20.6237 22.5ZM9.37375 22.5C9.87103 22.5 10.3479 22.3024 10.6996 21.9508C11.0512 21.5992 11.2487 21.1223 11.2487 20.625C11.2487 20.1277 11.0512 19.6508 10.6996 19.2992C10.3479 18.9475 9.87103 18.75 9.37375 18.75C8.87647 18.75 8.39955 18.9475 8.04792 19.2992C7.69629 19.6508 7.49875 20.1277 7.49875 20.625C7.49875 21.1223 7.69629 21.5992 8.04792 21.9508C8.39955 22.3024 8.87647 22.5 9.37375 22.5ZM14.9987 2.09781e-06C11.9164 0.000259134 8.90892 0.950099 6.38555 2.72029C3.86217 4.49049 1.94541 6.99508 0.896034 9.89333C-0.153342 12.7916 -0.284378 15.9427 0.520756 18.9181C1.32589 21.8934 3.0281 24.5485 5.39579 26.5221C7.76349 28.4957 10.6817 29.6919 13.7534 29.9481C16.8251 30.2043 19.9012 29.5079 22.563 27.9538C25.2249 26.3996 27.3434 24.0632 28.6302 21.2623C29.9171 18.4614 30.3098 15.332 29.755 12.3C29.7232 12.1269 29.6433 11.9663 29.5244 11.8365C29.4056 11.7067 29.2527 11.613 29.0831 11.566C28.9135 11.5191 28.7341 11.5208 28.5654 11.571C28.3968 11.6213 28.2457 11.7179 28.1294 11.85C27.6263 12.423 26.9605 12.8291 26.2208 13.014C25.481 13.199 24.7025 13.154 23.9889 12.8851C23.2754 12.6163 22.6608 12.1362 22.227 11.5091C21.7933 10.882 21.561 10.1375 21.5612 9.375C21.561 9.13546 21.4791 8.90316 21.3292 8.71638C21.1792 8.52961 20.9701 8.3995 20.7362 8.3475C20.077 8.19907 19.4701 7.87525 18.9797 7.41029C18.4893 6.94532 18.1337 6.35648 17.9504 5.70604C17.7672 5.05559 17.7631 4.36771 17.9386 3.71513C18.1141 3.06255 18.4627 2.46952 18.9475 1.99875C19.0679 1.8818 19.1548 1.73465 19.1989 1.57267C19.2431 1.4107 19.2429 1.23984 19.1985 1.07795C19.154 0.916053 19.0669 0.769066 18.9462 0.65234C18.8256 0.535614 18.6758 0.453431 18.5125 0.414377C17.3616 0.138464 16.1822 -0.000623027 14.9987 2.09781e-06ZM1.87375 15C1.87364 13.1385 2.26953 11.2982 3.03512 9.60136C3.80071 7.90454 4.9185 6.38998 6.31426 5.15825C7.71003 3.92651 9.35184 3.00578 11.1307 2.45717C12.9096 1.90855 14.7848 1.74462 16.6319 1.97625C16.2367 2.69397 16.0031 3.48934 15.9474 4.30676C15.8917 5.12417 16.0152 5.94388 16.3093 6.70858C16.6035 7.47327 17.0611 8.16448 17.6502 8.73387C18.2393 9.30326 18.9457 9.73708 19.72 10.005C19.8241 10.9314 20.1568 11.8174 20.6881 12.5833C21.2195 13.3492 21.9329 13.9711 22.7642 14.393C23.5955 14.8148 24.5186 15.0235 25.4505 15.0002C26.3825 14.9769 27.294 14.7223 28.1031 14.2594C28.2014 16.011 27.9476 17.7645 27.3566 19.4163C26.7656 21.0681 25.8495 22.5847 24.6623 23.8763C23.4752 25.168 22.0411 26.2086 20.445 26.9366C18.8488 27.6645 17.1228 28.0651 15.3692 28.1146C13.6155 28.1641 11.8698 27.8616 10.2351 27.2249C8.60034 26.5881 7.10986 25.6301 5.85172 24.4075C4.59359 23.1849 3.59333 21.7224 2.91008 20.1066C2.22682 18.4907 1.87444 16.7543 1.87375 15Z" fill="#0D272C"/>
</svg>
