<svg width="33" height="33" viewBox="0 0 33 33" fill="none" xmlns="http://www.w3.org/2000/svg">
<g id="&#240;&#159;&#166;&#134; icon &#34;cart&#34;">
<path id="Vector" d="M28.125 32C29.409 32 30.45 30.959 30.45 29.675C30.45 28.391 29.409 27.35 28.125 27.35C26.841 27.35 25.8 28.391 25.8 29.675C25.8 30.959 26.841 32 28.125 32Z" stroke="white" stroke-width="2" stroke-linecap="round" stroke-linejoin="round"/>
<path id="Vector_2" d="M12.625 32C13.909 32 14.95 30.959 14.95 29.675C14.95 28.391 13.909 27.35 12.625 27.35C11.3409 27.35 10.3 28.391 10.3 29.675C10.3 30.959 11.3409 32 12.625 32Z" stroke="white" stroke-width="2" stroke-linecap="round" stroke-linejoin="round"/>
<path id="Vector_3" d="M5.65 4.1H32L28.9 21.15H8.75L5.65 4.1ZM5.65 4.1C5.39166 3.06666 4.1 1 1 1" stroke="white" stroke-width="2" stroke-linecap="round" stroke-linejoin="round"/>
<path id="Vector_4" d="M28.9 21.15H8.75H6.0077C3.24201 21.15 1.775 22.3609 1.775 24.25C1.775 26.1391 3.24201 27.35 6.0077 27.35H28.125" stroke="white" stroke-width="2" stroke-linecap="round" stroke-linejoin="round"/>
</g>
</svg>
