<svg width="54" height="54" viewBox="0 0 54 54" fill="none" xmlns="http://www.w3.org/2000/svg">
<circle cx="27" cy="27" r="27" fill="#FEC9D1"/>
<path d="M52 27C52 29.9064 51.4736 32.7662 50.4374 35.5029C49.7352 37.0339 48.634 37.7019 48.0891 38.049C48.0751 38.0578 48.0575 38.0622 48.0434 38.0701C47.8483 38.1738 47.7754 38.2881 47.7824 38.5271C47.815 39.6055 46.589 40.4325 45.573 40.0352C45.0861 39.8445 44.8515 39.3365 44.9262 38.6326C44.9455 38.4427 44.9851 38.2837 45.0457 38.1518C45.1793 37.8601 45.4166 37.7001 45.7892 37.6359C45.8762 37.621 45.9624 37.6025 46.0502 37.5981C46.8649 37.5498 46.7902 37.5744 46.6804 36.7993C46.6505 36.591 46.6215 36.3827 46.5872 36.1735C46.509 35.6981 45.8437 35.655 45.6969 36.1138C45.6758 36.1788 45.6548 36.2447 45.6319 36.3097C45.4236 36.917 45.2057 37.5191 44.9332 38.0982C44.8146 38.3522 44.6845 38.6027 44.5413 38.8461C44.1792 39.4596 43.7477 40.0062 43.1413 40.3938C42.2774 40.9457 41.3133 40.9097 40.5364 40.247C40.278 40.0264 40.1998 40.1055 40.0662 40.3376C39.7902 40.8148 39.4334 41.2146 38.9158 41.4458C38.0747 41.8211 37.2574 41.386 37.1115 40.472C37.0131 39.8542 37.1335 39.2442 37.2372 38.6396C37.4578 37.3556 37.7047 36.076 37.9174 34.7911C37.9772 34.4272 38.109 34.2506 38.4702 34.342C38.5827 34.3701 38.6978 34.3868 38.8139 34.3886C39.1206 34.3947 39.1917 34.545 39.1276 34.857C38.8736 36.105 38.6337 37.3556 38.4034 38.608C38.3243 39.0386 38.2874 39.478 38.2426 39.9139C38.2312 40.0212 38.1855 40.1697 38.3279 40.2242C38.4272 40.2628 38.5326 40.1943 38.5994 40.117C39.3578 39.2416 40.0319 38.3267 39.8676 37.07C39.6988 35.7807 40.6489 33.8753 41.7852 33.2399C42.8003 32.6721 43.8637 33.2689 43.9015 34.4334C43.9436 35.6945 43.4339 36.7413 42.5867 37.6324C42.2202 38.0174 41.7474 38.2274 41.1938 38.1035C40.8967 38.0376 40.8668 38.165 40.9231 38.4023C40.9899 38.6897 41.0698 38.9692 41.2535 39.2082C41.5717 39.6213 42.0401 39.7057 42.5437 39.4024C43.1773 39.021 43.6378 38.4673 43.9428 37.8056C44.5764 36.4319 45.0229 34.9932 45.3718 33.5238C45.4693 33.1107 45.5677 32.6968 45.6381 32.2784C45.6838 32.0069 45.8121 31.8979 46.081 31.9251C46.226 31.9401 46.3736 31.9295 46.5195 31.9357C46.8509 31.9497 46.9959 32.122 46.9291 32.434C46.8816 32.6563 46.9018 32.8892 46.9677 33.1072C47.2745 34.1275 47.5118 35.1663 47.7508 36.2052C47.7824 36.3414 47.7649 36.5295 47.9371 36.5637C48.1182 36.5998 48.5286 36.3915 48.6543 36.2843C48.9267 36.0531 49.1983 35.7666 49.4355 35.1734C50.4365 32.543 50.9454 29.7939 50.9454 27C50.9454 13.7969 40.2033 3.05463 27.0004 3.05463C13.7976 3.05463 3.05461 13.7969 3.05461 27C3.05461 40.2031 13.7967 50.9454 27.0004 50.9454C31.5282 50.9454 36.0112 49.5577 39.966 46.9307L40.5487 47.8096C36.4216 50.5508 31.7365 52 27.0004 52C20.3221 52 14.0445 49.4003 9.32252 44.6782C4.6005 39.9561 2 33.6784 2 27C2 20.3216 4.6005 14.0448 9.32252 9.32265C14.0445 4.60054 20.3221 2 27.0004 2C33.6788 2 39.9555 4.60054 44.6775 9.32265C49.3995 14.0448 52 20.3224 52 27ZM46.4624 38.8198C46.4861 38.7503 46.451 38.7143 46.3824 38.7117C46.2735 38.7073 46.1803 38.7433 46.1451 38.8523C46.1197 38.9331 46.1698 38.9841 46.255 39.0034C46.364 38.9903 46.4281 38.9199 46.4624 38.8198ZM41.3616 36.9522C42.1376 36.7747 42.8407 35.8026 42.8354 34.8948C42.824 34.6452 42.8284 34.378 42.5489 34.2629C42.2563 34.1425 42.0392 34.3226 41.859 34.5151C41.3124 35.0978 41.018 35.7965 40.9301 36.5892C40.8914 36.9425 41.0338 37.0278 41.3616 36.9522Z" fill="#0D272C"/>
<path d="M48.2438 23.6893C48.395 24.6227 48.3475 25.5341 47.7499 26.3312C47.3342 26.8857 46.7595 27.1433 46.0766 27.1459C45.5677 27.1485 45.2742 26.8269 45.3067 26.3444C45.3437 25.8091 45.6873 25.4857 46.1777 25.5244C46.6962 25.5657 46.9344 25.3952 47.06 24.8916C47.1207 24.6482 47.1444 24.4039 47.1013 24.1525C46.9686 23.3765 46.5811 22.7059 46.204 21.8789C46.0546 22.4449 45.9369 22.8861 45.8209 23.3273C45.5045 24.5339 45.0888 25.7028 44.4885 26.8023C44.2284 27.2795 43.9322 27.7347 43.5218 28.0977C42.7519 28.7753 41.8046 28.5406 41.4381 27.5809C41.2403 27.0624 41.2052 26.5228 41.3229 25.9814C41.5409 24.9804 41.7685 23.982 41.9926 22.9819C42.0603 22.6804 42.0867 22.3737 42.0726 22.0661C42.0515 21.5748 41.8169 21.4324 41.3845 21.668C40.8115 21.9791 40.4643 22.4915 40.3044 23.1031C40.0671 24.0084 39.886 24.9285 39.6698 25.8399C39.4844 26.6221 39.284 27.4016 39.0863 28.1821C39.0547 28.3086 39.0133 28.4361 38.9597 28.5556C38.813 28.8781 38.5643 29.0319 38.2145 28.9212C37.8823 28.8157 37.8963 28.5354 37.9499 28.2664C38.2136 26.9314 38.4834 25.5973 38.7514 24.2632C38.8534 23.7588 38.9281 23.2534 38.878 22.7375C38.8323 22.2638 38.5397 22.0687 38.0888 22.2181C37.652 22.3631 37.4086 22.7103 37.2108 23.0944C36.8663 23.7649 36.7231 24.5023 36.5166 25.2186C36.2195 26.2442 35.9462 27.2777 35.6272 28.2972C35.3618 29.1462 34.8459 29.7983 33.9697 30.1006C33.285 30.3361 32.6883 30.1718 32.2577 29.5821C32.0538 29.3026 31.9395 29.3237 31.7541 29.5838C31.4729 29.9811 31.1222 30.3151 30.7048 30.569C29.7407 31.1552 28.8179 30.9821 28.1719 30.0628C27.9672 29.771 27.8758 29.7543 27.6622 30.0488C27.098 30.8274 26.3677 31.4048 25.43 31.6685C24.3894 31.9612 23.4816 31.7318 22.789 30.8731C22.5939 30.6306 22.5078 30.649 22.3707 30.903C22.0965 31.4101 21.7467 31.8627 21.2871 32.2134C20.7888 32.5939 20.2334 32.8444 19.6164 32.5517C18.974 32.2477 18.6743 31.6746 18.6822 30.9812C18.7007 29.4634 19.1629 28.045 19.7157 26.6511C19.7693 26.5157 19.83 26.3839 19.9055 26.209C19.5145 26.2389 19.191 26.4182 18.8351 26.4621C18.64 26.4859 18.7024 26.7311 18.6901 26.877C18.582 28.1865 18.154 29.3879 17.4896 30.5137C17.356 30.7404 17.2646 30.9303 16.9298 30.7589C16.6266 30.6042 16.6222 30.4302 16.7233 30.1595C17.1732 28.9511 17.5248 27.7136 17.8447 26.4648C17.9158 26.1862 17.8983 25.9884 17.6794 25.7599C17.1319 25.1887 17.0414 24.0092 17.4474 23.3299C17.6838 22.9362 18.0354 22.7621 18.3948 22.8632C18.7613 22.966 19.0179 23.3246 19.0135 23.7526C19.0109 23.9987 19.0091 24.243 18.9502 24.4917C18.8747 24.8108 19.0258 24.9294 19.3361 24.8196C19.5892 24.7308 19.8379 24.6244 20.0831 24.5146C20.6587 24.2553 21.2906 24.6262 21.3381 25.2563C21.3653 25.6158 21.2853 25.9445 21.1157 26.2679C20.4162 27.6073 20.0093 29.0372 19.8783 30.5409C19.8519 30.8485 19.7482 31.2625 20.0971 31.4154C20.4847 31.585 20.7484 31.2299 20.9619 30.9645C21.5419 30.243 22.0367 29.503 22.0631 28.4993C22.0983 27.1819 22.3074 25.9278 23.0914 24.7563C23.6617 23.9038 25.0055 22.9625 26.0205 23.1251C26.6428 23.2253 27.0514 23.576 27.2245 24.1929C27.6244 25.6176 26.7385 27.3348 25.2964 27.9254C24.7506 28.1478 24.1855 28.3033 23.602 28.3675C23.3093 28.3991 23.2328 28.5283 23.2575 28.7955C23.3119 29.3756 23.5457 29.8695 23.9772 30.2544C24.4087 30.6402 24.9694 30.6666 25.5319 30.3555C25.9089 30.1472 26.2271 29.8633 26.4819 29.5206C27.2571 28.4756 27.874 27.3595 28.07 26.0438C28.2291 24.9795 28.6702 24.0295 29.3373 23.1858C30.3734 21.8736 31.5528 21.6794 33.0319 22.6664C32.8738 21.7655 33.4714 21.7778 34.0206 21.7102C34.7905 21.6161 34.7887 21.6082 34.5673 22.3631C34.04 24.1613 33.6146 25.9858 33.1497 27.7998C33.0943 28.0142 33.0601 28.2304 33.0838 28.4519C33.1049 28.6558 33.1989 28.8131 33.394 28.8948C33.5988 28.9801 33.7684 28.9001 33.9143 28.763C34.2896 28.407 34.4732 27.9448 34.6077 27.4614C35.0111 26.0095 35.4075 24.555 35.8091 23.1023C35.9189 22.7077 36.0341 22.3139 36.1536 21.922C36.2054 21.755 36.2687 21.5906 36.3417 21.4316C36.4594 21.1714 36.7029 21.1064 36.9551 21.0712C37.2267 21.0334 37.2724 21.2593 37.3383 21.4781C37.4762 21.3744 37.5764 21.2945 37.6819 21.2206C38.3191 20.7733 38.9949 20.7794 39.5767 21.2848C39.7867 21.4676 39.8755 21.4737 40.0372 21.2461C40.2595 20.9332 40.561 20.6951 40.9152 20.536C42.1051 19.9999 43.2107 20.6836 43.2652 21.9887C43.288 22.5363 43.165 23.0654 43.0464 23.5927C42.8512 24.4636 42.6438 25.3319 42.4452 26.202C42.4162 26.3303 42.3942 26.463 42.3969 26.5931C42.4013 26.8444 42.244 27.1933 42.5428 27.3085C42.8829 27.4403 43.0428 27.0826 43.2019 26.8541C43.948 25.7793 44.3646 24.5594 44.6819 23.307C44.9508 22.2436 45.1775 21.1688 45.3999 20.0939C45.4869 19.6712 45.6671 19.3601 46.0924 19.2203C46.2849 19.1571 46.473 19.15 46.632 19.2854C46.8025 19.4295 46.8043 19.6229 46.7059 19.8048C46.5749 20.0482 46.7094 20.2258 46.828 20.4077C47.4907 21.4201 48.0487 22.48 48.2438 23.6893ZM32.5415 24.686C32.654 24.1428 32.4203 23.7807 31.9931 23.5039C31.5704 23.2288 31.1029 23.2508 30.6793 23.5496C30.2179 23.8757 29.9498 24.345 29.738 24.8477C29.2837 25.9278 29.1123 27.0677 29.0692 28.2286C29.0692 28.4044 29.0534 28.5819 29.0719 28.7551C29.1589 29.5724 29.7152 29.8167 30.3989 29.3413C30.6916 29.1374 30.913 28.8649 31.1125 28.5732C31.9141 27.3972 32.2568 26.0535 32.5415 24.686ZM26.046 25.2783C26.0821 24.9909 26.1374 24.6728 25.8219 24.4926C25.4994 24.3089 25.1461 24.3397 24.8728 24.5629C24.0133 25.2634 23.7074 26.2556 23.4227 27.3638C24.2585 27.1222 24.9563 26.8541 25.5161 26.3092C25.8079 26.0262 25.9959 25.6826 26.046 25.2783Z" fill="#0D272C"/>
<path d="M44.4806 43.5805C44.9174 43.5841 45.2795 43.9382 45.2689 44.3522C45.2619 44.5991 44.8199 44.9937 44.5465 44.9973C44.0403 45.0025 43.6756 44.6993 43.6774 44.274C43.6791 43.889 44.0403 43.5779 44.4806 43.5805Z" fill="#0D272C"/>
<path d="M38.5669 12.8205C40.2508 12.8258 41.6323 14.2487 41.6218 15.9668C41.6094 17.7878 40.2657 19.0982 38.4175 19.0912C36.7275 19.0859 35.367 17.6938 35.3837 15.987C35.3995 14.2908 36.883 12.8152 38.5669 12.8205ZM40.3527 16.0081C40.372 14.9544 39.6057 14.1449 38.5731 14.1291C37.5272 14.1124 36.6695 14.9526 36.658 16.0029C36.6466 17.0188 37.4631 17.8599 38.4702 17.8704C39.4818 17.881 40.3343 17.0373 40.3527 16.0081Z" fill="#0D272C"/>
<path d="M38.573 14.1291C39.6057 14.1449 40.372 14.9544 40.3527 16.0081C40.3342 17.0373 39.4818 17.881 38.4702 17.8704C37.4631 17.8599 36.6466 17.0188 36.658 16.0028C36.6695 14.9526 37.5272 14.1124 38.573 14.1291Z" fill="#CF7E85"/>
<path d="M39.676 32.5491C39.6786 33.1133 39.3781 33.4842 38.9158 33.4868C38.3797 33.4912 38.0299 33.0861 38.0238 32.4568C38.0185 31.9304 38.3463 31.5982 38.8639 31.6052C39.3622 31.6122 39.6725 31.9735 39.676 32.5491Z" fill="#0D272C"/>
<path d="M36.941 41.5161C37.1353 41.6796 37.3365 41.8518 37.0456 42.0663C36.811 42.2394 36.6273 42.6252 36.2081 42.2939C35.5235 41.7525 34.961 41.1057 34.4363 40.4184C34.323 40.2699 34.2166 40.1108 33.9732 40.0009C33.8791 40.8288 33.7807 41.6119 33.7051 42.3967C33.6682 42.7878 33.5171 42.975 33.0926 42.939C32.6883 42.9038 32.5011 42.7237 32.5442 42.322C32.6031 41.7692 32.6769 41.2182 32.7252 40.6654C32.7367 40.5362 32.8764 40.2936 32.6198 40.291C32.4088 40.2883 32.0925 40.2207 32.038 40.5959C31.9975 40.8701 31.9334 41.1417 31.8771 41.4142C31.6891 42.3141 31.1969 43.0146 30.4798 43.5788C29.9762 43.9751 29.4129 44.0929 28.8311 43.8732C28.2598 43.657 28.0981 43.1244 28.0146 42.5655C27.961 42.2042 28.0638 41.8158 27.8723 41.4511C27.6543 41.582 27.7229 41.7622 27.707 41.9063C27.5822 43.0365 27.1261 44.0182 26.3606 44.8487C25.7121 45.5527 24.9527 45.6054 24.2303 44.9841C23.9403 44.7345 23.8225 44.7635 23.6222 45.0755C23.2214 45.6995 22.7082 46.2171 21.9858 46.4781C21.1315 46.7875 20.3344 46.5063 19.8704 45.7293C19.1225 44.477 19.0706 43.1147 19.3044 41.7305C19.6463 39.7039 20.4865 37.8803 21.6773 36.2148C22.0253 35.7279 22.4849 35.3694 23.043 35.1461C23.8946 34.806 24.733 35.2085 24.9853 36.0883C25.2762 37.1007 24.8772 37.9875 24.4351 38.8558C24.2567 39.2073 24.0343 39.5369 23.7426 39.8111C23.1696 40.349 22.5816 40.2813 22.1844 39.6099C21.977 39.2601 21.8135 38.8848 21.6 38.4603C20.9962 39.7329 20.5093 40.9765 20.4372 42.3449C20.4039 42.9741 20.3889 43.606 20.5216 44.2265C20.6183 44.6765 20.7457 45.13 21.2493 45.2943C21.7678 45.4631 22.1475 45.1889 22.4964 44.8452C23.304 44.0499 23.834 43.0893 24.2532 42.0434C24.6759 40.987 25.0714 39.9095 25.7437 38.9718C26.0328 38.5684 26.4116 38.3302 26.9301 38.3434C27.1622 38.3496 27.3098 38.4304 27.4065 38.6501C27.6033 39.0984 27.7272 39.5624 27.7308 40.051C27.7334 40.4263 27.9021 40.4008 28.1324 40.24C28.4892 39.9913 28.7485 39.6608 28.9119 39.2557C29.1202 38.7398 29.3355 38.2265 29.6712 37.7766C30.355 36.8573 31.653 36.8942 32.1549 37.8407C32.277 38.071 32.2814 38.3144 32.2981 38.564C32.3069 38.6914 32.1786 38.9428 32.4686 38.9076C32.6769 38.883 32.9485 38.9243 32.988 38.5719C33.0926 37.6562 33.2297 36.7439 33.3395 35.829C33.51 34.4053 33.6911 32.9824 33.822 31.5551C33.8827 30.8933 34.323 31.2642 34.5963 31.2141C34.9496 31.1508 34.954 31.4004 34.9241 31.6588C34.8257 32.5315 34.7457 33.406 34.6323 34.2769C34.5928 34.5784 34.6103 34.6865 34.9698 34.6443C36.4796 34.4659 37.3093 35.4362 36.9577 36.9355C36.6642 38.1914 35.9374 38.9595 34.7158 39.2548C35.5419 39.9579 36.1351 40.8394 36.941 41.5161ZM34.8371 38.1035C35.4611 37.8249 35.9998 36.932 35.9594 36.2421C35.9321 35.7587 35.5164 35.5205 35.0858 35.7455C34.8274 35.8809 34.6736 36.1094 34.5567 36.3704C34.3968 36.7281 34.4029 37.1121 34.3625 37.4892C34.3537 37.5771 34.3432 37.6641 34.337 37.752C34.3001 38.2459 34.3845 38.3056 34.8371 38.1035ZM31.3876 38.7468C31.4096 38.5078 31.4017 38.2195 31.102 38.2037C30.87 38.1905 30.7179 38.3232 30.6265 38.5262C30.5633 38.6668 30.5475 38.8286 30.594 38.9753C30.638 39.1124 30.725 39.2232 30.9245 39.2443C31.283 39.282 31.3613 39.0254 31.3876 38.7468ZM30.9016 40.8253C30.928 40.7453 30.9772 40.6161 30.8735 40.5951C30.507 40.5221 30.2038 40.3156 29.8699 40.138C29.7969 40.189 29.7108 40.2251 29.6616 40.2883C29.2222 40.8508 28.9831 41.4818 29.0728 42.2042C29.1018 42.4354 29.1492 42.6867 29.4234 42.7632C29.7178 42.8458 29.9305 42.6903 30.1054 42.4749C30.5026 41.9889 30.7092 41.4098 30.9016 40.8253ZM26.8994 40.0423C26.9284 39.8199 26.938 39.2021 26.7403 39.1783C26.4099 39.1397 26.2921 39.9025 26.2868 40.0475C26.2772 40.3692 26.4266 40.5151 26.6015 40.5028C26.7667 40.4914 26.8853 40.1495 26.8994 40.0423ZM26.5118 42.5444C26.8554 41.4502 26.9407 41.7174 25.8263 41.4352C25.6945 41.4018 25.5987 41.4221 25.5433 41.5565C25.2419 42.2851 25.0134 43.0374 24.8271 43.7466C24.8209 44.1852 25.0881 44.3592 25.4396 44.1931C25.669 44.085 25.8377 43.904 25.9722 43.6895C26.1989 43.3301 26.3844 42.9495 26.5118 42.5444ZM23.9438 36.9531C23.9491 36.7175 23.9553 36.4697 23.7021 36.3458C23.4517 36.2219 23.2513 36.3677 23.0685 36.5198C22.8084 36.7351 22.5966 36.9953 22.412 37.2782C22.3268 37.4083 22.2855 37.5322 22.3452 37.6878C22.4902 38.0727 22.6959 38.426 22.9015 38.7793C22.9956 38.9402 23.0852 38.9375 23.1933 38.7872C23.5914 38.2362 23.9412 37.6667 23.9438 36.9531Z" fill="#0D272C"/>
<path d="M33.365 45.8726C33.793 45.8814 34.1156 46.1863 34.1041 46.5704C34.0927 46.9668 33.7658 47.2656 33.351 47.2594C32.9335 47.2542 32.611 46.9184 32.6198 46.4992C32.6268 46.1275 32.9414 45.8638 33.365 45.8726Z" fill="#0D272C"/>
<path d="M33.2692 10.4678C33.2692 12.6834 31.4746 14.4587 29.2248 14.4675C27.0224 14.4763 25.2428 12.5612 25.2463 10.1857C25.2498 8.0694 27.0839 6.24489 29.2099 6.24225C31.5151 6.23961 33.2692 8.065 33.2692 10.4678ZM32.0195 10.4221C32.0327 8.83752 30.7962 7.51044 29.2995 7.50341C27.7264 7.49726 26.5399 8.65823 26.5206 10.2244C26.5004 11.8415 27.7229 13.1949 29.2186 13.2116C30.7223 13.2283 32.0072 11.9487 32.0195 10.4221Z" fill="#0D272C"/>
<path d="M29.2995 7.50341C30.7962 7.51044 32.0327 8.83752 32.0195 10.4221C32.0072 11.9487 30.7223 13.2283 29.2186 13.2116C27.7229 13.1949 26.5004 11.8415 26.5206 10.2244C26.5399 8.65823 27.7264 7.49726 29.2995 7.50341Z" fill="#CF7E85"/>
<path d="M28.8363 17.692C29.2397 17.7052 29.6018 18.12 29.5957 18.5612C29.5895 18.947 29.2635 19.23 28.8284 19.2274C28.3767 19.2247 28.0304 18.8908 28.041 18.4672C28.0515 18.0559 28.4365 17.6797 28.8363 17.692Z" fill="#0D272C"/>
<path d="M24.189 18.911C24.1925 19.4647 23.7496 19.9138 23.1907 19.9261C22.6185 19.9392 22.1809 19.5077 22.1879 18.9382C22.1949 18.3652 22.6273 17.9451 23.2003 17.9548C23.7777 17.9645 24.1864 18.3599 24.189 18.911Z" fill="#0D272C"/>
<path d="M22.1932 6.58148C22.6273 6.59906 22.9094 6.89435 22.8927 7.31445C22.876 7.75651 22.4972 8.12388 22.0666 8.11509C21.6325 8.1063 21.3723 7.82419 21.3829 7.37597C21.3952 6.90314 21.7414 6.56303 22.1932 6.58148Z" fill="#0D272C"/>
<path d="M17.3674 9.99322C19.0372 10.0117 20.4487 11.4846 20.4381 13.1967C20.4276 14.8946 19.0162 16.2955 17.3235 16.2894C15.5201 16.2823 14.1105 14.8647 14.1324 13.0771C14.1535 11.3809 15.6291 9.97389 17.3674 9.99322ZM19.1251 13.2134C19.1383 12.1297 18.372 11.3405 17.3033 11.337C16.2786 11.3335 15.4358 12.1385 15.4217 13.136C15.4067 14.1414 16.2619 14.9922 17.2945 15.0001C18.2973 15.008 19.1128 14.2117 19.1251 13.2134Z" fill="#0D272C"/>
<path d="M17.3033 11.337C18.372 11.3405 19.1383 12.1297 19.1251 13.2133C19.1128 14.2117 18.2973 15.008 17.2945 15.0001C16.2619 14.9922 15.4067 14.1414 15.4217 13.136C15.4358 12.1385 16.2786 11.3335 17.3033 11.337Z" fill="#CF7E85"/>
<path d="M17.349 39.0421C17.6355 39.3357 17.7726 39.696 17.6452 40.0888C17.262 41.2665 17.059 42.5162 16.3251 43.5603C16.1713 43.78 16.2285 43.9303 16.4174 44.0797C16.8076 44.3891 17.1829 44.7178 17.5854 45.0096C17.8596 45.2073 17.8288 45.3558 17.6012 45.5562C17.0783 46.0167 16.9517 46.0616 16.4306 45.5764C15.9156 45.0966 15.5931 44.6826 14.8601 44.9366C14.687 44.9973 14.3741 45.0447 14.1922 45.0667C13.7712 45.1177 13.2404 45.0087 12.8836 44.803C11.1646 43.8099 9.9834 42.1287 10.3929 40.3648C10.5555 39.667 11.06 39.1107 11.7095 38.8075C11.9564 38.6923 12.0179 38.5412 11.9916 38.2643C11.8799 37.1069 12.2253 36.0918 13.0347 35.2525C13.954 34.298 15.3294 34.4308 15.76 35.5346C16.1309 36.4855 15.9921 37.4136 15.3883 38.2397C14.9963 38.7767 14.4286 39.094 13.8046 39.2961C13.5225 39.3875 13.4838 39.4903 13.6262 39.7558C14.1166 40.6715 14.5736 41.6057 15.1484 42.4732C15.2178 42.5778 15.2521 42.7175 15.434 42.7781C15.8444 42.0733 16.1766 41.3342 16.3568 40.5291C16.4051 40.3138 16.2663 40.1723 16.1582 40.0168C15.8822 39.6222 15.876 39.1168 16.1415 38.8927C16.4332 38.6475 17.0326 38.7178 17.349 39.0421ZM13.3467 38.3592C14.1272 38.2283 14.9348 37.084 14.8724 36.3036C14.8373 35.8624 14.5323 35.6963 14.1808 35.9696C13.5761 36.4398 13.2378 36.8775 12.9811 37.4936C12.7315 38.0938 12.9477 38.4252 13.3467 38.3592ZM14.3143 43.8556C14.5367 43.744 14.5332 43.5893 14.4435 43.4997C13.6376 42.4503 13.0066 41.2973 12.4547 40.1003C12.3194 39.8067 12.1884 39.8489 12.0127 40.0405C11.5891 40.501 11.386 41.0398 11.5495 41.6532C11.8026 42.6033 12.38 43.3151 13.2527 43.7774C13.6403 43.9901 14.0902 43.9672 14.3143 43.8556Z" fill="#0D272C"/>
<path d="M16.2153 23.3571C16.3664 24.0338 16.3937 24.7202 16.3849 25.4137C16.2012 27.9131 15.5711 30.2562 13.9294 32.2292C13.4311 32.8268 12.8563 33.3594 12.1278 33.6714C11.024 34.1434 9.95792 34.0906 8.98329 33.3401C8.8084 33.2056 8.72667 33.2126 8.60538 33.3823C8.49553 33.5352 8.36546 33.6793 8.22484 33.805C7.55077 34.4088 6.66841 34.4729 5.96622 33.979C5.27545 33.4939 5.01795 32.7205 5.31412 32.0209C5.65862 31.2062 6.50319 30.7404 7.38204 30.881C7.62899 30.9206 7.8821 30.968 8.08862 31.1069C8.42083 31.331 8.53859 31.1763 8.62912 30.8661C8.86377 30.069 9.13884 29.2815 9.40601 28.4993C9.82346 27.2795 10.1697 26.0376 10.5968 24.8222C10.8315 24.1543 11.0512 23.481 11.2577 22.8043C11.3887 22.3781 11.6585 22.3728 12.0135 22.4827C12.3756 22.5943 12.6208 22.7323 12.46 23.1901C11.488 25.9498 10.7585 28.7911 9.64242 31.5024C9.63187 31.5288 9.62397 31.5578 9.61254 31.5841C9.33219 32.2318 9.40513 32.4006 10.1126 32.5992C11.0855 32.8725 11.901 32.5298 12.6041 31.8777C13.555 30.997 14.0929 29.8633 14.4963 28.6575C15.0332 27.0554 15.3329 25.426 15.0042 23.7359C14.5745 21.5194 12.7395 20.5764 10.6768 21.5027C9.0659 22.2252 7.80915 24.2202 7.84518 25.9796C7.85046 26.2328 7.91462 26.4692 7.97438 26.7082C8.07896 27.1283 7.91901 27.5264 7.58329 27.6547C7.2757 27.7725 6.97337 27.58 6.79497 27.1406C6.47419 26.3496 6.59547 25.5525 6.80024 24.7677C7.30558 22.8324 8.35843 21.3111 10.2031 20.4261C12.8941 19.136 15.5641 20.4428 16.2153 23.3571ZM7.05862 33.1081C7.33633 33.1081 7.90319 32.5834 7.84167 32.3197C7.76257 31.9779 7.40137 32.0139 7.17287 31.9357C6.81518 31.9453 6.53835 32.2107 6.53659 32.5122C6.53395 32.8233 6.78442 33.1089 7.05862 33.1081Z" fill="#0D272C"/>
<path d="M11.2191 16.0257C11.2217 16.4238 10.7999 16.8545 10.4061 16.8562C10.0502 16.858 9.60287 16.4168 9.60112 16.06C9.59848 15.6276 10.015 15.182 10.4211 15.1838C10.8201 15.1838 11.2164 15.603 11.2191 16.0257Z" fill="#0D272C"/>
</svg>
