<svg width="35" height="35" viewBox="0 0 35 35" fill="none" xmlns="http://www.w3.org/2000/svg">
<g id="&#240;&#159;&#166;&#134; icon &#34;user circle alt&#34;">
<path id="Vector" d="M9.75 26.8V25.25C9.75 20.9698 13.2198 17.5 17.5 17.5C21.7802 17.5 25.25 20.9698 25.25 25.25V26.8" stroke="white" stroke-width="2" stroke-linecap="round"/>
<path id="Vector_2" d="M17.5 17.5C20.0682 17.5 22.15 15.4182 22.15 12.85C22.15 10.2819 20.0682 8.20001 17.5 8.20001C14.9318 8.20001 12.85 10.2819 12.85 12.85C12.85 15.4182 14.9318 17.5 17.5 17.5Z" stroke="white" stroke-width="2" stroke-linecap="round" stroke-linejoin="round"/>
<path id="Vector_3" d="M17.5 33C26.0604 33 33 26.0604 33 17.5C33 8.93959 26.0604 2 17.5 2C8.93959 2 2 8.93959 2 17.5C2 26.0604 8.93959 33 17.5 33Z" stroke="white" stroke-width="3"/>
</g>
</svg>
