<svg width="68" height="68" viewBox="0 0 68 68" fill="none" xmlns="http://www.w3.org/2000/svg">
<g filter="url(#filter0_d_243_3081)">
<g clip-path="url(#clip0_243_3081)">
<rect x="6" y="5" width="56" height="56" rx="28" fill="white"/>
<rect x="6" y="5" width="56" height="56" fill="#222222" fill-opacity="0.01"/>
<rect x="6" y="5" width="56" height="56" fill="#CF7E85"/>
<g clip-path="url(#clip1_243_3081)">
<path d="M43 25H39.9C39.6679 23.8714 39.0538 22.8573 38.1613 22.1287C37.2687 21.4001 36.1522 21.0015 35 21H33C31.8478 21.0015 30.7313 21.4001 29.8387 22.1287C28.9462 22.8573 28.3321 23.8714 28.1 25H25C24.7348 25 24.4804 25.1054 24.2929 25.2929C24.1054 25.4804 24 25.7348 24 26C24 26.2652 24.1054 26.5196 24.2929 26.7071C24.4804 26.8946 24.7348 27 25 27H26V40C26.0016 41.3256 26.5289 42.5964 27.4662 43.5338C28.4036 44.4711 29.6744 44.9984 31 45H37C38.3256 44.9984 39.5964 44.4711 40.5338 43.5338C41.4711 42.5964 41.9984 41.3256 42 40V27H43C43.2652 27 43.5196 26.8946 43.7071 26.7071C43.8946 26.5196 44 26.2652 44 26C44 25.7348 43.8946 25.4804 43.7071 25.2929C43.5196 25.1054 43.2652 25 43 25V25ZM33 23H35C35.6203 23.0008 36.2251 23.1934 36.7316 23.5514C37.2381 23.9095 37.6214 24.4155 37.829 25H30.171C30.3786 24.4155 30.7619 23.9095 31.2684 23.5514C31.7749 23.1934 32.3797 23.0008 33 23V23ZM40 40C40 40.7956 39.6839 41.5587 39.1213 42.1213C38.5587 42.6839 37.7956 43 37 43H31C30.2044 43 29.4413 42.6839 28.8787 42.1213C28.3161 41.5587 28 40.7956 28 40V27H40V40Z" fill="white"/>
<path d="M32 38.999C32.2652 38.999 32.5196 38.8937 32.7071 38.7061C32.8946 38.5186 33 38.2642 33 37.999V31.999C33 31.7338 32.8946 31.4795 32.7071 31.2919C32.5196 31.1044 32.2652 30.999 32 30.999C31.7348 30.999 31.4804 31.1044 31.2929 31.2919C31.1054 31.4795 31 31.7338 31 31.999V37.999C31 38.2642 31.1054 38.5186 31.2929 38.7061C31.4804 38.8937 31.7348 38.999 32 38.999Z" fill="white"/>
<path d="M36 38.999C36.2652 38.999 36.5196 38.8937 36.7071 38.7061C36.8947 38.5186 37 38.2642 37 37.999V31.999C37 31.7338 36.8947 31.4795 36.7071 31.2919C36.5196 31.1044 36.2652 30.999 36 30.999C35.7348 30.999 35.4804 31.1044 35.2929 31.2919C35.1054 31.4795 35 31.7338 35 31.999V37.999C35 38.2642 35.1054 38.5186 35.2929 38.7061C35.4804 38.8937 35.7348 38.999 36 38.999Z" fill="white"/>
</g>
</g>
</g>
<defs>
<filter id="filter0_d_243_3081" x="0" y="0" width="68" height="68" filterUnits="userSpaceOnUse" color-interpolation-filters="sRGB">
<feFlood flood-opacity="0" result="BackgroundImageFix"/>
<feColorMatrix in="SourceAlpha" type="matrix" values="0 0 0 0 0 0 0 0 0 0 0 0 0 0 0 0 0 0 127 0" result="hardAlpha"/>
<feOffset dy="1"/>
<feGaussianBlur stdDeviation="3"/>
<feColorMatrix type="matrix" values="0 0 0 0 0.266667 0 0 0 0 0.266667 0 0 0 0 0.266667 0 0 0 0.2 0"/>
<feBlend mode="normal" in2="BackgroundImageFix" result="effect1_dropShadow_243_3081"/>
<feBlend mode="normal" in="SourceGraphic" in2="effect1_dropShadow_243_3081" result="shape"/>
</filter>
<clipPath id="clip0_243_3081">
<rect x="6" y="5" width="56" height="56" rx="28" fill="white"/>
</clipPath>
<clipPath id="clip1_243_3081">
<rect width="24" height="24" fill="white" transform="translate(22 21)"/>
</clipPath>
</defs>
</svg>
