<svg width="202" height="202" viewBox="0 0 202 202" fill="none" xmlns="http://www.w3.org/2000/svg">
<path d="M201.926 101C201.926 112.733 199.801 124.278 195.618 135.327C192.783 141.507 188.337 144.204 186.138 145.605C186.081 145.641 186.01 145.658 185.953 145.69C185.166 146.109 184.871 146.57 184.899 147.535C185.031 151.889 180.081 155.227 175.98 153.624C174.014 152.854 173.067 150.803 173.369 147.961C173.447 147.195 173.606 146.553 173.851 146.02C174.391 144.842 175.349 144.197 176.853 143.938C177.204 143.877 177.552 143.803 177.907 143.785C181.195 143.59 180.894 143.689 180.45 140.56C180.33 139.719 180.213 138.878 180.074 138.034C179.759 136.114 177.073 135.941 176.48 137.793C176.395 138.055 176.31 138.321 176.218 138.584C175.377 141.035 174.497 143.466 173.397 145.804C172.918 146.829 172.393 147.84 171.815 148.823C170.353 151.3 168.611 153.507 166.163 155.071C162.675 157.299 158.783 157.154 155.647 154.479C154.604 153.588 154.288 153.908 153.749 154.844C152.635 156.771 151.194 158.385 149.105 159.318C145.709 160.833 142.41 159.077 141.821 155.387C141.423 152.893 141.909 150.431 142.328 147.99C143.219 142.806 144.215 137.64 145.074 132.453C145.315 130.984 145.848 130.271 147.306 130.64C147.76 130.753 148.225 130.821 148.693 130.828C149.931 130.853 150.219 131.459 149.96 132.719C148.934 137.757 147.966 142.806 147.036 147.862C146.717 149.6 146.568 151.374 146.387 153.134C146.341 153.567 146.156 154.167 146.731 154.387C147.132 154.543 147.558 154.266 147.827 153.954C150.889 150.42 153.61 146.726 152.947 141.653C152.266 136.448 156.101 128.756 160.688 126.191C164.786 123.899 169.079 126.308 169.232 131.009C169.402 136.1 167.344 140.326 163.924 143.924C162.445 145.478 160.536 146.326 158.301 145.825C157.102 145.559 156.981 146.074 157.208 147.032C157.478 148.192 157.8 149.32 158.542 150.285C159.826 151.953 161.717 152.293 163.75 151.069C166.308 149.529 168.168 147.294 169.399 144.622C171.957 139.077 173.759 133.269 175.168 127.337C175.561 125.669 175.959 123.998 176.243 122.309C176.427 121.213 176.945 120.773 178.031 120.883C178.616 120.943 179.212 120.901 179.801 120.925C181.139 120.982 181.724 121.678 181.454 122.937C181.263 123.835 181.344 124.775 181.611 125.655C182.849 129.774 183.807 133.968 184.772 138.162C184.899 138.712 184.829 139.471 185.524 139.609C186.255 139.755 187.912 138.914 188.419 138.481C189.519 137.548 190.615 136.391 191.573 133.996C195.614 123.377 197.668 112.279 197.668 101C197.668 47.6987 154.302 4.33168 101.002 4.33168C47.7014 4.33168 4.3316 47.6987 4.3316 101C4.3316 154.301 47.6978 197.668 101.002 197.668C119.281 197.668 137.379 192.066 153.344 181.461L155.697 185.009C139.036 196.075 120.122 201.926 101.002 201.926C74.0412 201.926 48.6984 191.431 29.6354 172.368C10.5724 153.304 0.0740967 127.961 0.0740967 101C0.0740967 74.0389 10.5724 48.6992 29.6354 29.6359C48.6984 10.5726 74.0412 0.0740967 101.002 0.0740967C127.962 0.0740967 153.302 10.5726 172.365 29.6359C191.428 48.6992 201.926 74.0424 201.926 101ZM179.571 148.717C179.666 148.437 179.524 148.291 179.248 148.28C178.808 148.263 178.432 148.408 178.29 148.848C178.187 149.175 178.389 149.38 178.733 149.458C179.173 149.405 179.432 149.121 179.571 148.717ZM158.978 141.177C162.111 140.461 164.95 136.537 164.928 132.872C164.882 131.864 164.9 130.785 163.772 130.321C162.59 129.834 161.714 130.562 160.986 131.339C158.78 133.691 157.591 136.512 157.236 139.712C157.08 141.138 157.655 141.482 158.978 141.177Z" fill="#0D272C"/>
<path d="M186.762 87.6348C187.372 91.4027 187.181 95.082 184.768 98.3C183.09 100.539 180.77 101.578 178.013 101.589C175.959 101.6 174.774 100.301 174.905 98.3532C175.054 96.1925 176.441 94.8868 178.421 95.043C180.514 95.2097 181.476 94.5214 181.983 92.4884C182.228 91.5056 182.324 90.5193 182.15 89.5045C181.614 86.3717 180.049 83.6646 178.527 80.3259C177.924 82.6108 177.449 84.3919 176.981 86.173C175.703 91.0444 174.025 95.7632 171.602 100.202C170.552 102.128 169.356 103.966 167.699 105.431C164.591 108.167 160.767 107.22 159.287 103.345C158.489 101.252 158.347 99.0735 158.822 96.8879C159.702 92.8468 160.621 88.8162 161.526 84.7786C161.799 83.5617 161.905 82.3234 161.849 81.0816C161.764 79.0983 160.816 78.5235 159.071 79.4744C156.757 80.7304 155.356 82.7989 154.71 85.2683C153.752 88.9227 153.021 92.6374 152.149 96.3167C151.4 99.4744 150.591 102.621 149.793 105.772C149.665 106.283 149.498 106.797 149.282 107.28C148.689 108.582 147.685 109.203 146.273 108.756C144.932 108.33 144.989 107.198 145.205 106.113C146.27 100.723 147.359 95.3374 148.441 89.9516C148.853 87.9151 149.154 85.875 148.952 83.7923C148.767 81.8799 147.586 81.0923 145.766 81.6954C144.003 82.2809 143.02 83.6823 142.222 85.2328C140.831 87.9399 140.252 90.9166 139.419 93.8083C138.22 97.9487 137.116 102.121 135.828 106.237C134.757 109.664 132.674 112.297 129.137 113.517C126.373 114.468 123.964 113.805 122.225 111.424C121.402 110.296 120.941 110.381 120.193 111.431C119.057 113.035 117.642 114.383 115.956 115.408C112.064 117.775 108.339 117.076 105.731 113.365C104.905 112.187 104.536 112.119 103.673 113.308C101.396 116.451 98.4473 118.782 94.6617 119.847C90.461 121.028 86.796 120.102 84.0002 116.636C83.2126 115.657 82.8649 115.731 82.3114 116.757C81.2044 118.804 79.7924 120.631 77.9368 122.047C75.9251 123.583 73.6828 124.594 71.1922 123.413C68.5987 122.185 67.3888 119.872 67.4208 117.072C67.4953 110.945 69.3615 105.219 71.5931 99.5915C71.8095 99.0451 72.0544 98.5129 72.3595 97.8068C70.7807 97.9275 69.475 98.6512 68.0381 98.8286C67.2505 98.9244 67.5024 99.9143 67.4527 100.503C67.0163 105.79 65.2885 110.64 62.6062 115.185C62.0669 116.1 61.698 116.867 60.3462 116.175C59.1222 115.55 59.1044 114.848 59.5124 113.755C61.329 108.877 62.7482 103.881 64.0396 98.8393C64.327 97.7146 64.256 96.9163 63.3726 95.9938C61.1622 93.6876 60.7968 88.9262 62.4359 86.1836C63.3903 84.5941 64.8095 83.8916 66.2606 84.2997C67.7401 84.7148 68.7761 86.1623 68.7583 87.8902C68.7477 88.8837 68.7406 89.87 68.5029 90.8741C68.1978 92.162 68.808 92.641 70.0604 92.1975C71.0822 91.8391 72.0863 91.4098 73.0761 90.9663C75.4 89.9197 77.951 91.4169 78.1426 93.9608C78.2526 95.4119 77.9297 96.7389 77.2449 98.0445C74.4208 103.452 72.7781 109.224 72.2495 115.295C72.1431 116.537 71.7244 118.208 73.1329 118.825C74.6976 119.51 75.7619 118.076 76.6241 117.005C78.9657 114.092 80.9632 111.105 81.0696 107.053C81.2115 101.734 82.0559 96.6715 85.2207 91.942C87.5233 88.5005 92.948 84.7006 97.0459 85.357C99.5578 85.7614 101.208 87.1771 101.907 89.6678C103.521 95.419 99.9445 102.352 94.1224 104.736C91.9192 105.634 89.6378 106.262 87.282 106.521C86.1006 106.648 85.7919 107.17 85.8912 108.249C86.1112 110.59 87.0549 112.584 88.797 114.138C90.539 115.696 92.8026 115.802 95.0732 114.546C96.5953 113.705 97.8797 112.559 98.9086 111.176C102.038 106.957 104.528 102.451 105.32 97.1398C105.962 92.8432 107.743 89.0078 110.436 85.6018C114.619 80.3046 119.38 79.5205 125.351 83.5049C124.713 79.8682 127.125 79.9179 129.343 79.6447C132.451 79.2651 132.443 79.2331 131.549 82.2809C129.421 89.54 127.703 96.9056 125.827 104.229C125.603 105.094 125.465 105.967 125.561 106.861C125.646 107.684 126.025 108.319 126.813 108.649C127.64 108.994 128.324 108.671 128.913 108.117C130.428 106.68 131.17 104.814 131.713 102.863C133.341 97.0014 134.941 91.1295 136.563 85.2647C137.006 83.6717 137.471 82.0822 137.953 80.4998C138.163 79.8257 138.418 79.1622 138.713 78.52C139.188 77.4698 140.171 77.2072 141.189 77.0653C142.285 76.9128 142.47 77.8246 142.736 78.708C143.293 78.2894 143.698 77.9665 144.123 77.6685C146.696 75.8626 149.424 75.8874 151.773 77.9275C152.621 78.6655 152.979 78.6903 153.632 77.7714C154.529 76.5083 155.746 75.5468 157.176 74.9046C161.98 72.7403 166.443 75.5007 166.663 80.7694C166.755 82.9798 166.259 85.1157 165.78 87.2445C164.992 90.7605 164.155 94.2659 163.353 97.7784C163.236 98.2964 163.147 98.8322 163.158 99.3573C163.176 100.372 162.541 101.781 163.747 102.245C165.12 102.778 165.766 101.334 166.408 100.411C169.42 96.0719 171.102 91.1473 172.382 86.0914C173.468 81.7983 174.383 77.4591 175.281 73.12C175.632 71.4134 176.36 70.1574 178.077 69.5933C178.854 69.3378 179.613 69.3094 180.255 69.8558C180.944 70.4377 180.951 71.2182 180.553 71.9527C180.025 72.9355 180.567 73.6522 181.046 74.3866C183.722 78.4739 185.975 82.7527 186.762 87.6348ZM123.371 91.6582C123.826 89.4655 122.882 88.0038 121.158 86.8861C119.451 85.7756 117.564 85.8643 115.853 87.0706C113.991 88.3869 112.909 90.2816 112.054 92.311C110.219 96.6715 109.527 101.273 109.354 105.96C109.354 106.67 109.29 107.386 109.364 108.085C109.716 111.385 111.961 112.371 114.722 110.452C115.903 109.629 116.797 108.529 117.603 107.351C120.838 102.604 122.222 97.1788 123.371 91.6582ZM97.1488 94.0495C97.2943 92.8893 97.5178 91.605 96.2441 90.8776C94.942 90.1361 93.5157 90.2603 92.4123 91.1615C88.9424 93.9892 87.7078 97.9949 86.5582 102.469C89.9323 101.493 92.7494 100.411 95.0094 98.2113C96.1873 97.0688 96.9466 95.6816 97.1488 94.0495Z" fill="#0D272C"/>
<path d="M171.57 167.936C173.333 167.95 174.795 169.38 174.752 171.051C174.724 172.048 172.939 173.641 171.836 173.656C169.792 173.677 168.32 172.453 168.327 170.736C168.334 169.182 169.792 167.926 171.57 167.936Z" fill="#0D272C"/>
<path d="M147.696 43.7569C154.494 43.7782 160.071 49.5223 160.029 56.4586C159.979 63.8101 154.554 69.1001 147.093 69.0717C140.27 69.0504 134.778 63.4304 134.845 56.5402C134.909 49.6926 140.898 43.7356 147.696 43.7569ZM154.905 56.6254C154.983 52.3714 151.89 49.1037 147.721 49.0398C143.499 48.9724 140.036 52.3643 139.99 56.6041C139.944 60.7056 143.24 64.101 147.306 64.1436C151.389 64.1861 154.831 60.7801 154.905 56.6254Z" fill="#0D272C"/>
<path d="M147.721 49.0398C151.89 49.1037 154.983 52.3714 154.905 56.6254C154.831 60.7801 151.389 64.1861 147.306 64.1436C143.24 64.101 139.944 60.7056 139.99 56.6041C140.036 52.3643 143.499 48.9724 147.721 49.0398Z" fill="#CF7E85"/>
<path d="M152.173 123.402C152.184 125.68 150.971 127.177 149.104 127.188C146.94 127.205 145.528 125.57 145.503 123.029C145.482 120.904 146.805 119.563 148.895 119.591C150.907 119.62 152.159 121.078 152.173 123.402Z" fill="#0D272C"/>
<path d="M141.132 159.602C141.916 160.262 142.729 160.957 141.555 161.823C140.607 162.522 139.866 164.08 138.173 162.742C135.41 160.556 133.139 157.945 131.021 155.171C130.563 154.571 130.134 153.929 129.151 153.485C128.771 156.828 128.374 159.989 128.069 163.157C127.92 164.736 127.31 165.492 125.596 165.346C123.964 165.204 123.208 164.477 123.382 162.856C123.62 160.624 123.918 158.399 124.113 156.168C124.159 155.646 124.723 154.667 123.687 154.656C122.836 154.646 121.558 154.372 121.339 155.887C121.175 156.994 120.916 158.091 120.689 159.19C119.93 162.824 117.943 165.651 115.048 167.929C113.015 169.529 110.741 170.005 108.392 169.118C106.086 168.245 105.433 166.095 105.096 163.838C104.88 162.38 105.295 160.812 104.521 159.34C103.641 159.868 103.918 160.596 103.854 161.177C103.351 165.74 101.509 169.703 98.4189 173.056C95.8006 175.898 92.7352 176.111 89.8188 173.602C88.648 172.595 88.1726 172.712 87.3636 173.971C85.7458 176.49 83.6738 178.58 80.7574 179.634C77.3088 180.883 74.0909 179.748 72.2176 176.611C69.1983 171.555 68.9889 166.056 69.9327 160.468C71.3128 152.286 74.7046 144.924 79.5121 138.201C80.9171 136.235 82.7726 134.787 85.0255 133.886C88.4635 132.513 91.8482 134.138 92.8665 137.69C94.0408 141.777 92.4301 145.357 90.6455 148.862C89.9252 150.282 89.0276 151.612 87.8497 152.719C85.5364 154.89 83.1629 154.617 81.5592 151.906C80.7219 150.494 80.062 148.979 79.1999 147.266C76.7624 152.403 74.7969 157.424 74.506 162.948C74.3711 165.488 74.3108 168.039 74.8466 170.544C75.2368 172.361 75.7513 174.191 77.7842 174.855C79.8775 175.536 81.4102 174.429 82.8187 173.042C86.0793 169.831 88.2187 165.953 89.911 161.731C91.6176 157.466 93.2142 153.116 95.9283 149.331C97.0956 147.702 98.6247 146.741 100.718 146.794C101.655 146.819 102.251 147.145 102.641 148.032C103.436 149.842 103.936 151.715 103.95 153.688C103.961 155.203 104.642 155.1 105.572 154.45C107.012 153.446 108.059 152.112 108.719 150.477C109.559 148.394 110.429 146.322 111.784 144.505C114.544 140.794 119.785 140.943 121.81 144.764C122.304 145.694 122.321 146.677 122.389 147.684C122.424 148.199 121.906 149.214 123.077 149.072C123.918 148.972 125.014 149.139 125.174 147.716C125.596 144.019 126.149 140.337 126.593 136.643C127.281 130.895 128.012 125.151 128.541 119.389C128.786 116.718 130.563 118.215 131.667 118.013C133.093 117.757 133.111 118.765 132.99 119.808C132.593 123.331 132.27 126.861 131.812 130.377C131.652 131.594 131.723 132.031 133.174 131.86C139.27 131.14 142.619 135.057 141.2 141.11C140.015 146.18 137.081 149.281 132.149 150.473C135.484 153.311 137.879 156.87 141.132 159.602ZM132.639 145.825C135.158 144.701 137.333 141.096 137.169 138.311C137.059 136.359 135.381 135.398 133.643 136.306C132.6 136.852 131.979 137.775 131.507 138.829C130.861 140.273 130.886 141.823 130.723 143.345C130.687 143.7 130.645 144.051 130.62 144.406C130.471 146.4 130.811 146.641 132.639 145.825ZM118.713 148.422C118.802 147.457 118.77 146.294 117.56 146.23C116.623 146.177 116.01 146.712 115.641 147.532C115.385 148.1 115.321 148.752 115.509 149.345C115.687 149.898 116.038 150.345 116.843 150.431C118.291 150.583 118.607 149.547 118.713 148.422ZM116.751 156.813C116.857 156.49 117.056 155.969 116.638 155.884C115.158 155.589 113.934 154.756 112.586 154.039C112.291 154.245 111.944 154.39 111.745 154.646C109.971 156.916 109.006 159.464 109.368 162.38C109.485 163.313 109.677 164.328 110.783 164.637C111.972 164.97 112.831 164.342 113.537 163.473C115.14 161.511 115.974 159.173 116.751 156.813ZM100.594 153.652C100.711 152.754 100.75 150.26 99.9516 150.164C98.6176 150.008 98.1422 153.088 98.1209 153.673C98.0819 154.972 98.6851 155.561 99.3911 155.511C100.058 155.465 100.537 154.085 100.594 153.652ZM99.0292 163.753C100.416 159.336 100.761 160.415 96.2618 159.276C95.7296 159.141 95.3429 159.222 95.1194 159.765C93.9024 162.707 92.98 165.744 92.2278 168.607C92.203 170.377 93.2816 171.08 94.7007 170.409C95.6267 169.973 96.3079 169.242 96.8508 168.376C97.7661 166.925 98.5147 165.389 99.0292 163.753ZM88.6622 141.181C88.6834 140.23 88.7083 139.23 87.6865 138.729C86.6753 138.229 85.8664 138.818 85.1284 139.432C84.0783 140.301 83.2232 141.351 82.4781 142.494C82.134 143.019 81.9672 143.519 82.2085 144.147C82.7939 145.701 83.6241 147.127 84.4543 148.554C84.834 149.203 85.1958 149.192 85.6322 148.586C87.2394 146.361 88.6515 144.062 88.6622 141.181Z" fill="#0D272C"/>
<path d="M126.696 177.189C128.424 177.225 129.726 178.456 129.68 180.006C129.634 181.607 128.314 182.813 126.639 182.788C124.954 182.767 123.652 181.411 123.687 179.719C123.716 178.218 124.986 177.154 126.696 177.189Z" fill="#0D272C"/>
<path d="M126.309 34.2589C126.309 43.2034 119.064 50.3703 109.982 50.4058C101.09 50.4413 93.9059 42.7102 93.9201 33.12C93.9343 24.5765 101.339 17.2109 109.921 17.2002C119.227 17.1896 126.309 24.5587 126.309 34.2589ZM121.264 34.0744C121.317 27.6774 116.325 22.3199 110.283 22.2916C103.932 22.2667 99.1427 26.9536 99.0646 33.2761C98.983 39.8044 103.918 45.2683 109.957 45.3357C116.027 45.4031 121.214 40.2373 121.264 34.0744Z" fill="#0D272C"/>
<path d="M110.283 22.2916C116.325 22.32 121.317 27.6774 121.264 34.0744C121.214 40.2373 116.027 45.4031 109.957 45.3357C103.918 45.2683 98.9831 39.8044 99.0647 33.2761C99.1427 26.9536 103.932 22.2667 110.283 22.2916Z" fill="#CF7E85"/>
<path d="M108.413 63.4233C110.042 63.4766 111.504 65.1512 111.479 66.9323C111.454 68.4899 110.138 69.6323 108.381 69.6217C106.558 69.611 105.16 68.2628 105.203 66.5527C105.245 64.8922 106.799 63.3737 108.413 63.4233Z" fill="#0D272C"/>
<path d="M89.652 68.3444C89.6662 70.5796 87.8781 72.3926 85.6216 72.4423C83.3119 72.4955 81.545 70.7535 81.5734 68.4544C81.6018 66.1411 83.3474 64.4452 85.6606 64.4842C87.9916 64.5232 89.6414 66.1198 89.652 68.3444Z" fill="#0D272C"/>
<path d="M81.5947 18.5697C83.3474 18.6407 84.4862 19.8328 84.4188 21.5287C84.3514 23.3134 82.8223 24.7964 81.0838 24.761C79.3311 24.7255 78.2809 23.5866 78.3235 21.7771C78.3732 19.8683 79.7711 18.4952 81.5947 18.5697Z" fill="#0D272C"/>
<path d="M62.113 32.343C68.8541 32.4175 74.5521 38.364 74.5095 45.2754C74.4669 52.1301 68.7689 57.7856 61.9356 57.7608C54.6553 57.7324 48.9644 52.0095 49.0531 44.7929C49.1383 37.9453 55.0953 32.265 62.113 32.343ZM69.2089 45.3428C69.2621 40.9682 66.1683 37.7821 61.854 37.7679C57.7172 37.7537 54.3147 41.0036 54.2579 45.0306C54.1976 49.0895 57.6498 52.5239 61.8186 52.5559C65.8667 52.5878 69.1592 49.3733 69.2089 45.3428Z" fill="#0D272C"/>
<path d="M61.8541 37.7679C66.1683 37.7821 69.2621 40.9681 69.2089 45.3428C69.1593 49.3733 65.8668 52.5878 61.8186 52.5559C57.6498 52.5239 54.1977 49.0895 54.258 45.0306C54.3147 41.0036 57.7172 37.7537 61.8541 37.7679Z" fill="#CF7E85"/>
<path d="M62.0386 149.615C63.1952 150.8 63.7487 152.254 63.2342 153.84C61.6873 158.594 60.8677 163.64 57.9052 167.855C57.2843 168.742 57.515 169.348 58.2778 169.952C59.8531 171.2 61.368 172.527 62.993 173.705C64.0999 174.504 63.9757 175.103 63.0568 175.912C60.9458 177.771 60.4349 177.952 58.331 175.994C56.2519 174.057 54.9498 172.385 51.9908 173.411C51.2919 173.656 50.0289 173.847 49.2944 173.936C47.595 174.142 45.452 173.702 44.0116 172.872C37.0718 168.862 32.3034 162.075 33.9568 154.954C34.6131 152.137 36.6496 149.891 39.2716 148.667C40.2685 148.202 40.5169 147.592 40.4104 146.475C39.9598 141.802 41.3542 137.704 44.6218 134.316C48.3329 130.462 53.8854 130.998 55.6239 135.455C57.1211 139.293 56.5606 143.04 54.1231 146.375C52.5408 148.543 50.2488 149.824 47.7298 150.64C46.5909 151.009 46.4348 151.424 47.0096 152.495C48.9893 156.192 50.8342 159.964 53.1546 163.466C53.4349 163.888 53.5732 164.452 54.3076 164.697C55.9645 161.851 57.3056 158.868 58.033 155.618C58.2281 154.748 57.6675 154.177 57.2311 153.549C56.1171 151.956 56.0922 149.916 57.1637 149.011C58.3416 148.021 60.7613 148.305 62.0386 149.615ZM45.8813 146.858C49.0319 146.329 52.2924 141.71 52.0405 138.559C51.8986 136.778 50.6675 136.107 49.2483 137.211C46.8073 139.109 45.4414 140.876 44.4054 143.363C43.3978 145.786 44.2706 147.124 45.8813 146.858ZM49.7876 169.047C50.6852 168.596 50.671 167.972 50.3091 167.61C47.0557 163.374 44.5083 158.719 42.2802 153.886C41.7338 152.701 41.2052 152.872 40.4956 153.645C38.7855 155.504 37.9659 157.679 38.6258 160.156C39.6476 163.991 41.9786 166.865 45.5017 168.731C47.0663 169.59 48.8829 169.497 49.7876 169.047Z" fill="#0D272C"/>
<path d="M57.4617 86.2936C58.0719 89.0256 58.1819 91.7966 58.1465 94.5959C57.4049 104.686 54.8611 114.145 48.2336 122.111C46.2219 124.523 43.9015 126.673 40.9603 127.933C36.5041 129.838 32.2005 129.625 28.2659 126.595C27.5598 126.052 27.2299 126.081 26.7402 126.765C26.2968 127.383 25.7717 127.965 25.204 128.472C22.4827 130.91 18.9206 131.169 16.0858 129.175C13.2972 127.216 12.2576 124.094 13.4533 121.27C14.8441 117.981 18.2536 116.1 21.8016 116.668C22.7985 116.828 23.8203 117.019 24.6541 117.58C25.9952 118.484 26.4706 117.86 26.8361 116.608C27.7833 113.39 28.8938 110.211 29.9724 107.053C31.6577 102.128 33.0555 97.115 34.7798 92.2081C35.7271 89.5117 36.6141 86.7939 37.4479 84.062C37.9765 82.3412 39.0657 82.3199 40.4991 82.7634C41.9608 83.214 42.9507 83.771 42.3014 85.6195C38.3774 96.7602 35.4327 108.231 30.9268 119.176C30.8842 119.283 30.8523 119.4 30.8062 119.506C29.6744 122.121 29.9688 122.802 32.8249 123.604C36.7525 124.708 40.045 123.324 42.8833 120.691C46.7221 117.136 48.8935 112.559 50.522 107.692C52.6897 101.224 53.8996 94.6456 52.5727 87.8228C50.8377 78.8748 43.4297 75.0678 35.1027 78.8074C28.5994 81.7238 23.5258 89.7778 23.6713 96.8808C23.6926 97.9026 23.9516 98.857 24.1928 99.8221C24.615 101.518 23.9693 103.125 22.614 103.643C21.3722 104.119 20.1517 103.342 19.4315 101.568C18.1365 98.3745 18.6262 95.1565 19.4528 91.9881C21.4929 84.1755 25.7433 78.0339 33.1904 74.4611C44.0541 69.2527 54.8327 74.5285 57.4617 86.2936ZM20.4959 125.659C21.617 125.659 23.9055 123.54 23.6571 122.476C23.3378 121.096 21.8796 121.241 20.9571 120.926C19.5131 120.965 18.3955 122.036 18.3885 123.253C18.3778 124.509 19.3889 125.662 20.4959 125.659Z" fill="#0D272C"/>
<path d="M37.2918 56.6963C37.3024 58.3036 35.5994 60.0421 34.0099 60.0492C32.573 60.0563 30.7672 58.2752 30.7601 56.8347C30.7494 55.0891 32.4311 53.2903 34.0703 53.2974C35.681 53.2974 37.2811 54.9898 37.2918 56.6963Z" fill="#0D272C"/>
</svg>
