<svg width="281" height="226" viewBox="0 0 281 226" fill="none" xmlns="http://www.w3.org/2000/svg">
<circle cx="137" cy="115" r="109" fill="#FEC9D1"/>
<path d="M237.926 115C237.926 126.733 235.801 138.278 231.618 149.327C228.783 155.507 224.337 158.204 222.138 159.605C222.081 159.641 222.01 159.658 221.953 159.69C221.166 160.109 220.871 160.57 220.899 161.535C221.031 165.889 216.081 169.227 211.98 167.624C210.014 166.854 209.067 164.803 209.369 161.961C209.447 161.195 209.606 160.553 209.851 160.02C210.391 158.842 211.349 158.197 212.853 157.938C213.204 157.877 213.552 157.803 213.907 157.785C217.195 157.59 216.894 157.689 216.45 154.56C216.33 153.719 216.213 152.878 216.074 152.034C215.759 150.114 213.073 149.941 212.48 151.793C212.395 152.055 212.31 152.321 212.218 152.584C211.377 155.035 210.497 157.466 209.397 159.804C208.918 160.829 208.393 161.84 207.815 162.823C206.353 165.3 204.611 167.507 202.163 169.071C198.675 171.299 194.783 171.154 191.647 168.479C190.604 167.588 190.288 167.908 189.749 168.844C188.635 170.771 187.194 172.385 185.105 173.318C181.709 174.833 178.41 173.077 177.821 169.387C177.423 166.893 177.909 164.431 178.328 161.99C179.219 156.806 180.215 151.64 181.074 146.453C181.315 144.984 181.848 144.271 183.306 144.64C183.76 144.753 184.225 144.821 184.693 144.828C185.931 144.853 186.219 145.459 185.96 146.719C184.934 151.757 183.966 156.806 183.036 161.862C182.717 163.6 182.568 165.374 182.387 167.134C182.341 167.567 182.156 168.167 182.731 168.387C183.132 168.543 183.558 168.266 183.827 167.954C186.889 164.42 189.61 160.726 188.947 155.653C188.266 150.448 192.101 142.756 196.688 140.191C200.786 137.899 205.079 140.308 205.232 145.009C205.402 150.1 203.344 154.326 199.924 157.924C198.445 159.478 196.536 160.326 194.301 159.825C193.102 159.559 192.981 160.074 193.208 161.032C193.478 162.192 193.8 163.32 194.542 164.285C195.826 165.953 197.717 166.293 199.75 165.069C202.308 163.529 204.168 161.294 205.399 158.622C207.957 153.077 209.759 147.269 211.168 141.337C211.561 139.669 211.959 137.998 212.243 136.309C212.427 135.213 212.945 134.773 214.031 134.883C214.616 134.943 215.212 134.901 215.801 134.925C217.139 134.982 217.724 135.678 217.454 136.937C217.263 137.835 217.344 138.775 217.611 139.655C218.849 143.774 219.807 147.968 220.772 152.162C220.899 152.712 220.829 153.471 221.524 153.609C222.255 153.755 223.912 152.914 224.419 152.481C225.519 151.548 226.615 150.391 227.573 147.996C231.614 137.377 233.668 126.279 233.668 115C233.668 61.6987 190.302 18.3317 137.002 18.3317C83.7014 18.3317 40.3316 61.6987 40.3316 115C40.3316 168.301 83.6978 211.668 137.002 211.668C155.281 211.668 173.379 206.066 189.344 195.461L191.697 199.009C175.036 210.075 156.122 215.926 137.002 215.926C110.041 215.926 84.6984 205.431 65.6354 186.368C46.5724 167.304 36.0741 141.961 36.0741 115C36.0741 88.0389 46.5724 62.6992 65.6354 43.6359C84.6984 24.5726 110.041 14.0741 137.002 14.0741C163.962 14.0741 189.302 24.5726 208.365 43.6359C227.428 62.6992 237.926 88.0424 237.926 115ZM215.571 162.717C215.666 162.437 215.524 162.291 215.248 162.28C214.808 162.263 214.432 162.408 214.29 162.848C214.187 163.175 214.389 163.38 214.733 163.458C215.173 163.405 215.432 163.121 215.571 162.717ZM194.978 155.177C198.111 154.461 200.95 150.537 200.928 146.872C200.882 145.864 200.9 144.785 199.772 144.321C198.59 143.834 197.714 144.562 196.986 145.339C194.78 147.691 193.591 150.512 193.236 153.712C193.08 155.138 193.655 155.482 194.978 155.177Z" fill="#0D272C"/>
<path d="M222.762 101.635C223.372 105.403 223.181 109.082 220.768 112.3C219.09 114.539 216.77 115.578 214.013 115.589C211.959 115.6 210.774 114.301 210.905 112.353C211.054 110.193 212.441 108.887 214.421 109.043C216.514 109.21 217.476 108.521 217.983 106.488C218.228 105.506 218.324 104.519 218.15 103.505C217.614 100.372 216.049 97.6646 214.527 94.3259C213.924 96.6108 213.449 98.3919 212.981 100.173C211.703 105.044 210.025 109.763 207.602 114.202C206.552 116.128 205.356 117.966 203.699 119.431C200.591 122.167 196.767 121.22 195.287 117.345C194.489 115.252 194.347 113.073 194.822 110.888C195.702 106.847 196.621 102.816 197.526 98.7786C197.799 97.5617 197.905 96.3234 197.849 95.0816C197.764 93.0983 196.816 92.5235 195.071 93.4744C192.757 94.7304 191.356 96.7989 190.71 99.2683C189.752 102.923 189.021 106.637 188.149 110.317C187.4 113.474 186.591 116.621 185.793 119.772C185.665 120.283 185.498 120.797 185.282 121.28C184.689 122.582 183.685 123.203 182.273 122.756C180.932 122.33 180.989 121.198 181.205 120.113C182.27 114.723 183.359 109.337 184.441 103.952C184.853 101.915 185.154 99.875 184.952 97.7923C184.767 95.8799 183.586 95.0923 181.766 95.6954C180.003 96.2809 179.02 97.6823 178.222 99.2328C176.831 101.94 176.252 104.917 175.419 107.808C174.22 111.949 173.116 116.121 171.828 120.237C170.757 123.664 168.674 126.297 165.137 127.517C162.373 128.468 159.964 127.805 158.225 125.424C157.402 124.296 156.941 124.381 156.193 125.431C155.057 127.035 153.642 128.383 151.956 129.408C148.064 131.775 144.339 131.076 141.731 127.365C140.905 126.187 140.536 126.119 139.673 127.308C137.396 130.451 134.447 132.782 130.662 133.847C126.461 135.028 122.796 134.102 120 130.636C119.213 129.657 118.865 129.731 118.311 130.757C117.204 132.804 115.792 134.631 113.937 136.047C111.925 137.583 109.683 138.594 107.192 137.413C104.599 136.185 103.389 133.872 103.421 131.072C103.495 124.945 105.361 119.219 107.593 113.591C107.81 113.045 108.054 112.513 108.359 111.807C106.781 111.927 105.475 112.651 104.038 112.829C103.25 112.924 103.502 113.914 103.453 114.503C103.016 119.79 101.288 124.64 98.6062 129.185C98.0669 130.1 97.698 130.867 96.3462 130.175C95.1222 129.55 95.1044 128.848 95.5124 127.755C97.329 122.877 98.7482 117.881 100.04 112.839C100.327 111.715 100.256 110.916 99.3726 109.994C97.1622 107.688 96.7968 102.926 98.4359 100.184C99.3903 98.5941 100.81 97.8916 102.261 98.2997C103.74 98.7148 104.776 100.162 104.758 101.89C104.748 102.884 104.741 103.87 104.503 104.874C104.198 106.162 104.808 106.641 106.06 106.197C107.082 105.839 108.086 105.41 109.076 104.966C111.4 103.92 113.951 105.417 114.143 107.961C114.253 109.412 113.93 110.739 113.245 112.045C110.421 117.452 108.778 123.224 108.249 129.295C108.143 130.537 107.724 132.208 109.133 132.825C110.698 133.51 111.762 132.076 112.624 131.005C114.966 128.092 116.963 125.105 117.07 121.053C117.212 115.734 118.056 110.671 121.221 105.942C123.523 102.5 128.948 98.7006 133.046 99.357C135.558 99.7614 137.208 101.177 137.907 103.668C139.521 109.419 135.945 116.352 130.122 118.736C127.919 119.634 125.638 120.262 123.282 120.521C122.101 120.648 121.792 121.17 121.891 122.249C122.111 124.59 123.055 126.584 124.797 128.138C126.539 129.696 128.803 129.802 131.073 128.546C132.595 127.705 133.88 126.559 134.909 125.176C138.038 120.957 140.528 116.451 141.32 111.14C141.962 106.843 143.743 103.008 146.436 99.6018C150.619 94.3046 155.38 93.5205 161.351 97.5049C160.713 93.8682 163.125 93.9179 165.343 93.6447C168.451 93.2651 168.443 93.2331 167.549 96.2809C165.421 103.54 163.703 110.906 161.827 118.229C161.603 119.094 161.465 119.967 161.561 120.861C161.646 121.684 162.025 122.319 162.813 122.649C163.64 122.994 164.324 122.671 164.913 122.117C166.428 120.68 167.17 118.814 167.713 116.863C169.341 111.001 170.941 105.13 172.563 99.2647C173.006 97.6717 173.471 96.0822 173.953 94.4998C174.163 93.8257 174.418 93.1622 174.713 92.52C175.188 91.4698 176.171 91.2072 177.189 91.0653C178.285 90.9128 178.47 91.8246 178.736 92.708C179.293 92.2894 179.698 91.9665 180.123 91.6685C182.696 89.8626 185.424 89.8874 187.773 91.9275C188.621 92.6655 188.979 92.6903 189.632 91.7714C190.529 90.5083 191.746 89.5468 193.176 88.9046C197.98 86.7403 202.443 89.5007 202.663 94.7694C202.755 96.9798 202.259 99.1157 201.78 101.244C200.992 104.761 200.155 108.266 199.353 111.778C199.236 112.296 199.147 112.832 199.158 113.357C199.176 114.372 198.541 115.781 199.747 116.245C201.12 116.778 201.766 115.334 202.408 114.411C205.42 110.072 207.102 105.147 208.382 100.091C209.468 95.7983 210.383 91.4591 211.281 87.12C211.632 85.4134 212.36 84.1574 214.077 83.5933C214.854 83.3378 215.613 83.3094 216.255 83.8558C216.944 84.4377 216.951 85.2182 216.553 85.9527C216.025 86.9355 216.567 87.6522 217.046 88.3866C219.722 92.4739 221.975 96.7527 222.762 101.635ZM159.371 105.658C159.826 103.466 158.882 102.004 157.158 100.886C155.451 99.7756 153.564 99.8643 151.853 101.071C149.991 102.387 148.909 104.282 148.054 106.311C146.219 110.671 145.527 115.273 145.354 119.96C145.354 120.67 145.29 121.386 145.364 122.085C145.716 125.385 147.961 126.371 150.722 124.452C151.903 123.629 152.797 122.529 153.603 121.351C156.838 116.604 158.222 111.179 159.371 105.658ZM133.149 108.05C133.294 106.889 133.518 105.605 132.244 104.878C130.942 104.136 129.516 104.26 128.412 105.161C124.942 107.989 123.708 111.995 122.558 116.469C125.932 115.493 128.749 114.411 131.009 112.211C132.187 111.069 132.947 109.682 133.149 108.05Z" fill="#0D272C"/>
<path d="M207.57 181.936C209.333 181.95 210.795 183.38 210.752 185.051C210.724 186.048 208.939 187.641 207.836 187.656C205.792 187.677 204.32 186.453 204.327 184.736C204.334 183.182 205.792 181.926 207.57 181.936Z" fill="#0D272C"/>
<path d="M183.696 57.7569C190.494 57.7782 196.071 63.5223 196.029 70.4586C195.979 77.8101 190.554 83.1001 183.093 83.0717C176.27 83.0504 170.778 77.4304 170.845 70.5403C170.909 63.6926 176.898 57.7356 183.696 57.7569ZM190.905 70.6254C190.983 66.3714 187.89 63.1037 183.721 63.0398C179.499 62.9724 176.036 66.3643 175.99 70.6041C175.944 74.7056 179.24 78.101 183.306 78.1436C187.389 78.1862 190.831 74.7801 190.905 70.6254Z" fill="#0D272C"/>
<path d="M183.721 63.0398C187.89 63.1037 190.983 66.3714 190.905 70.6254C190.831 74.7801 187.389 78.1862 183.306 78.1436C179.24 78.101 175.944 74.7056 175.99 70.6041C176.036 66.3643 179.499 62.9724 183.721 63.0398Z" fill="#CF7E85"/>
<path d="M188.173 137.402C188.184 139.68 186.971 141.177 185.104 141.188C182.94 141.205 181.528 139.57 181.503 137.029C181.482 134.904 182.805 133.563 184.895 133.591C186.907 133.62 188.159 135.078 188.173 137.402Z" fill="#0D272C"/>
<path d="M177.132 173.602C177.916 174.262 178.729 174.957 177.555 175.823C176.607 176.522 175.866 178.08 174.173 176.742C171.41 174.556 169.139 171.945 167.021 169.171C166.563 168.571 166.134 167.929 165.151 167.485C164.771 170.828 164.374 173.989 164.069 177.157C163.92 178.736 163.31 179.492 161.596 179.346C159.964 179.204 159.208 178.477 159.382 176.856C159.62 174.624 159.918 172.399 160.113 170.168C160.159 169.646 160.723 168.667 159.687 168.656C158.836 168.646 157.558 168.372 157.339 169.887C157.175 170.994 156.916 172.091 156.689 173.19C155.93 176.824 153.943 179.651 151.048 181.929C149.015 183.529 146.741 184.005 144.392 183.118C142.086 182.245 141.433 180.095 141.096 177.838C140.88 176.38 141.295 174.812 140.521 173.339C139.641 173.868 139.918 174.595 139.854 175.177C139.351 179.74 137.509 183.703 134.419 187.056C131.801 189.898 128.735 190.111 125.819 187.602C124.648 186.595 124.173 186.712 123.364 187.971C121.746 190.49 119.674 192.58 116.757 193.634C113.309 194.883 110.091 193.747 108.218 190.611C105.198 185.555 104.989 180.056 105.933 174.468C107.313 166.286 110.705 158.924 115.512 152.201C116.917 150.235 118.773 148.787 121.026 147.886C124.463 146.513 127.848 148.138 128.866 151.69C130.041 155.777 128.43 159.357 126.645 162.862C125.925 164.281 125.028 165.612 123.85 166.719C121.536 168.89 119.163 168.617 117.559 165.906C116.722 164.494 116.062 162.979 115.2 161.266C112.762 166.403 110.797 171.424 110.506 176.948C110.371 179.488 110.311 182.039 110.847 184.544C111.237 186.361 111.751 188.191 113.784 188.855C115.878 189.536 117.41 188.429 118.819 187.042C122.079 183.831 124.219 179.953 125.911 175.731C127.618 171.466 129.214 167.116 131.928 163.331C133.096 161.702 134.625 160.741 136.718 160.794C137.655 160.819 138.251 161.145 138.641 162.032C139.436 163.842 139.936 165.715 139.95 167.688C139.961 169.203 140.642 169.1 141.572 168.45C143.012 167.446 144.059 166.112 144.719 164.477C145.559 162.394 146.429 160.322 147.784 158.505C150.544 154.794 155.785 154.943 157.81 158.764C158.304 159.694 158.321 160.677 158.389 161.684C158.424 162.199 157.906 163.214 159.077 163.072C159.918 162.972 161.014 163.139 161.174 161.716C161.596 158.019 162.149 154.337 162.593 150.643C163.281 144.895 164.012 139.151 164.541 133.389C164.786 130.718 166.563 132.215 167.667 132.013C169.093 131.757 169.111 132.765 168.99 133.808C168.593 137.331 168.27 140.861 167.812 144.377C167.652 145.594 167.723 146.031 169.174 145.86C175.27 145.14 178.619 149.057 177.2 155.11C176.015 160.18 173.081 163.281 168.149 164.473C171.484 167.311 173.879 170.87 177.132 173.602ZM168.639 159.825C171.158 158.701 173.333 155.096 173.169 152.311C173.059 150.359 171.381 149.398 169.643 150.306C168.6 150.852 167.979 151.775 167.507 152.829C166.861 154.273 166.886 155.823 166.723 157.345C166.687 157.7 166.645 158.051 166.62 158.406C166.471 160.4 166.811 160.641 168.639 159.825ZM154.713 162.422C154.802 161.457 154.77 160.294 153.56 160.23C152.623 160.176 152.01 160.712 151.641 161.532C151.385 162.099 151.321 162.752 151.509 163.345C151.687 163.898 152.038 164.345 152.843 164.431C154.291 164.583 154.607 163.547 154.713 162.422ZM152.751 170.813C152.857 170.49 153.056 169.969 152.638 169.884C151.158 169.589 149.934 168.755 148.586 168.039C148.291 168.245 147.944 168.39 147.745 168.646C145.971 170.916 145.006 173.464 145.368 176.38C145.485 177.313 145.677 178.328 146.783 178.637C147.972 178.97 148.831 178.342 149.537 177.473C151.14 175.511 151.974 173.173 152.751 170.813ZM136.594 167.652C136.711 166.754 136.75 164.26 135.952 164.164C134.618 164.008 134.142 167.088 134.121 167.673C134.082 168.972 134.685 169.561 135.391 169.511C136.058 169.465 136.537 168.085 136.594 167.652ZM135.029 177.753C136.416 173.336 136.761 174.415 132.262 173.276C131.73 173.141 131.343 173.222 131.119 173.765C129.902 176.707 128.98 179.744 128.228 182.607C128.203 184.377 129.282 185.08 130.701 184.409C131.627 183.973 132.308 183.242 132.851 182.376C133.766 180.925 134.515 179.389 135.029 177.753ZM124.662 155.181C124.683 154.23 124.708 153.23 123.686 152.729C122.675 152.229 121.866 152.818 121.128 153.432C120.078 154.301 119.223 155.351 118.478 156.494C118.134 157.019 117.967 157.519 118.208 158.147C118.794 159.701 119.624 161.127 120.454 162.554C120.834 163.203 121.196 163.192 121.632 162.586C123.239 160.361 124.652 158.062 124.662 155.181Z" fill="#0D272C"/>
<path d="M162.696 191.189C164.424 191.225 165.726 192.456 165.68 194.006C165.634 195.607 164.314 196.813 162.639 196.788C160.954 196.767 159.652 195.411 159.687 193.719C159.716 192.218 160.986 191.154 162.696 191.189Z" fill="#0D272C"/>
<path d="M162.309 48.2589C162.309 57.2034 155.064 64.3703 145.982 64.4058C137.09 64.4413 129.906 56.7102 129.92 47.12C129.934 38.5765 137.339 31.2109 145.921 31.2002C155.227 31.1896 162.309 38.5587 162.309 48.2589ZM157.264 48.0744C157.317 41.6774 152.325 36.32 146.283 36.2916C139.932 36.2667 135.143 40.9536 135.065 47.2761C134.983 53.8044 139.918 59.2683 145.957 59.3357C152.027 59.4031 157.214 54.2373 157.264 48.0744Z" fill="#0D272C"/>
<path d="M146.283 36.2916C152.325 36.32 157.317 41.6774 157.264 48.0744C157.214 54.2373 152.027 59.4031 145.957 59.3357C139.918 59.2683 134.983 53.8044 135.065 47.2761C135.143 40.9536 139.932 36.2667 146.283 36.2916Z" fill="#CF7E85"/>
<path d="M144.413 77.4233C146.042 77.4766 147.504 79.1512 147.479 80.9323C147.454 82.4898 146.138 83.6323 144.381 83.6217C142.558 83.611 141.16 82.2628 141.203 80.5527C141.245 78.8922 142.799 77.3737 144.413 77.4233Z" fill="#0D272C"/>
<path d="M125.652 82.3444C125.666 84.5796 123.878 86.3926 121.622 86.4423C119.312 86.4955 117.545 84.7535 117.573 82.4544C117.602 80.1411 119.347 78.4452 121.661 78.4842C123.992 78.5232 125.641 80.1198 125.652 82.3444Z" fill="#0D272C"/>
<path d="M117.595 32.5697C119.347 32.6407 120.486 33.8328 120.419 35.5287C120.351 37.3134 118.822 38.7964 117.084 38.761C115.331 38.7255 114.281 37.5866 114.324 35.7771C114.373 33.8683 115.771 32.4952 117.595 32.5697Z" fill="#0D272C"/>
<path d="M98.113 46.343C104.854 46.4175 110.552 52.3639 110.509 59.2754C110.467 66.1301 104.769 71.7856 97.9356 71.7608C90.6553 71.7324 84.9644 66.0095 85.0531 58.7929C85.1383 51.9453 91.0953 46.265 98.113 46.343ZM105.209 59.3428C105.262 54.9681 102.168 51.7821 97.854 51.7679C93.7172 51.7537 90.3147 55.0036 90.2579 59.0306C90.1976 63.0895 93.6498 66.5239 97.8186 66.5559C101.867 66.5878 105.159 63.3733 105.209 59.3428Z" fill="#0D272C"/>
<path d="M97.8541 51.7679C102.168 51.7821 105.262 54.9681 105.209 59.3428C105.159 63.3733 101.867 66.5878 97.8186 66.5559C93.6498 66.5239 90.1977 63.0895 90.258 59.0306C90.3147 55.0036 93.7172 51.7537 97.8541 51.7679Z" fill="#CF7E85"/>
<path d="M98.0386 163.615C99.1952 164.8 99.7487 166.254 99.2342 167.84C97.6873 172.594 96.8677 177.64 93.9052 181.855C93.2843 182.742 93.515 183.348 94.2778 183.952C95.8531 185.2 97.368 186.527 98.993 187.705C100.1 188.504 99.9757 189.103 99.0568 189.912C96.9458 191.771 96.4349 191.952 94.331 189.994C92.2519 188.057 90.9498 186.385 87.9908 187.411C87.2919 187.656 86.0289 187.847 85.2944 187.936C83.595 188.142 81.452 187.702 80.0116 186.872C73.0718 182.862 68.3034 176.075 69.9568 168.954C70.6131 166.137 72.6496 163.891 75.2716 162.667C76.2685 162.202 76.5169 161.592 76.4104 160.475C75.9598 155.802 77.3542 151.704 80.6218 148.316C84.3329 144.462 89.8854 144.998 91.6239 149.455C93.1211 153.293 92.5606 157.04 90.1231 160.375C88.5408 162.543 86.2488 163.824 83.7298 164.64C82.5909 165.009 82.4348 165.424 83.0096 166.495C84.9893 170.192 86.8342 173.964 89.1546 177.466C89.4349 177.888 89.5732 178.452 90.3076 178.697C91.9645 175.851 93.3056 172.868 94.033 169.618C94.2281 168.748 93.6675 168.177 93.2311 167.549C92.1171 165.956 92.0922 163.916 93.1637 163.011C94.3416 162.021 96.7613 162.305 98.0386 163.615ZM81.8813 160.858C85.0319 160.329 88.2924 155.71 88.0405 152.559C87.8986 150.778 86.6675 150.107 85.2483 151.211C82.8073 153.109 81.4414 154.876 80.4054 157.363C79.3978 159.786 80.2706 161.124 81.8813 160.858ZM85.7876 183.047C86.6852 182.596 86.671 181.972 86.3091 181.61C83.0557 177.374 80.5083 172.719 78.2802 167.886C77.7338 166.701 77.2052 166.872 76.4956 167.645C74.7855 169.504 73.9659 171.679 74.6258 174.156C75.6476 177.991 77.9786 180.865 81.5017 182.731C83.0663 183.59 84.8829 183.497 85.7876 183.047Z" fill="#0D272C"/>
<path d="M93.4617 100.294C94.0719 103.026 94.1819 105.797 94.1465 108.596C93.4049 118.686 90.8611 128.145 84.2336 136.111C82.2219 138.523 79.9015 140.673 76.9603 141.933C72.5041 143.838 68.2005 143.625 64.2659 140.595C63.5598 140.052 63.2299 140.081 62.7402 140.765C62.2968 141.383 61.7717 141.965 61.204 142.472C58.4827 144.91 54.9206 145.169 52.0858 143.175C49.2972 141.216 48.2576 138.094 49.4533 135.27C50.8441 131.981 54.2536 130.1 57.8016 130.668C58.7985 130.828 59.8203 131.019 60.6541 131.58C61.9952 132.484 62.4706 131.86 62.8361 130.608C63.7833 127.39 64.8938 124.211 65.9724 121.053C67.6577 116.128 69.0555 111.115 70.7798 106.208C71.7271 103.512 72.6141 100.794 73.4479 98.062C73.9765 96.3412 75.0657 96.3199 76.4991 96.7634C77.9608 97.214 78.9507 97.771 78.3014 99.6195C74.3774 110.76 71.4327 122.231 66.9268 133.176C66.8842 133.283 66.8523 133.4 66.8062 133.506C65.6744 136.121 65.9688 136.802 68.8249 137.604C72.7525 138.708 76.045 137.324 78.8833 134.691C82.7221 131.136 84.8935 126.559 86.522 121.692C88.6897 115.224 89.8996 108.646 88.5727 101.823C86.8377 92.8748 79.4297 89.0678 71.1027 92.8074C64.5994 95.7238 59.5258 103.778 59.6713 110.881C59.6926 111.903 59.9516 112.857 60.1928 113.822C60.615 115.518 59.9693 117.125 58.614 117.643C57.3722 118.119 56.1517 117.342 55.4315 115.568C54.1365 112.375 54.6262 109.156 55.4528 105.988C57.4929 98.1755 61.7433 92.0339 69.1904 88.4611C80.0541 83.2527 90.8327 88.5285 93.4617 100.294ZM56.4959 139.659C57.617 139.659 59.9055 137.54 59.6571 136.476C59.3378 135.096 57.8796 135.241 56.9571 134.926C55.5131 134.965 54.3955 136.036 54.3885 137.253C54.3778 138.509 55.3889 139.662 56.4959 139.659Z" fill="#0D272C"/>
<path d="M73.2918 70.6964C73.3024 72.3036 71.5994 74.0421 70.0099 74.0492C68.573 74.0563 66.7672 72.2752 66.7601 70.8347C66.7494 69.0891 68.4311 67.2903 70.0703 67.2974C71.681 67.2974 73.2811 68.9898 73.2918 70.6964Z" fill="#0D272C"/>
<path d="M25.4088 1.13212L32.3363 13.7978C32.5351 14.1617 32.835 14.4615 33.2022 14.6637L45.8679 21.5912C47.3774 22.4167 47.3774 24.5833 45.8679 25.4088L33.2022 32.3363C32.8383 32.5351 32.5385 32.835 32.3363 33.2022L25.4088 45.8679C24.5833 47.3774 22.4167 47.3774 21.5912 45.8679L14.6637 33.2022C14.4649 32.8383 14.165 32.5385 13.7978 32.3363L1.13212 25.4088C-0.377375 24.5833 -0.377375 22.4167 1.13212 21.5912L13.7978 14.6637C14.1617 14.4649 14.4615 14.165 14.6637 13.7978L21.5912 1.13212C22.4167 -0.377375 24.5833 -0.377375 25.4088 1.13212Z" fill="#F9F5F2"/>
<path d="M259.409 179.156L266.336 192.091C266.535 192.463 266.835 192.769 267.202 192.976L279.868 200.051C281.377 200.894 281.377 203.106 279.868 203.949L267.202 211.024C266.838 211.227 266.538 211.534 266.336 211.909L259.409 224.844C258.583 226.385 256.417 226.385 255.591 224.844L248.664 211.909C248.465 211.537 248.165 211.231 247.798 211.024L235.132 203.949C233.623 203.106 233.623 200.894 235.132 200.051L247.798 192.976C248.162 192.773 248.462 192.466 248.664 192.091L255.591 179.156C256.417 177.615 258.583 177.615 259.409 179.156Z" fill="#F9F5F2"/>
</svg>
