<svg width="56" height="56" viewBox="0 0 56 56" fill="none" xmlns="http://www.w3.org/2000/svg">
<circle cx="28" cy="28" r="28" fill="#FEC9D1"/>
<path d="M53.9259 28C53.9259 31.014 53.38 33.9798 52.3055 36.8179C51.5773 38.4056 50.4353 39.0982 49.8703 39.4583C49.8557 39.4674 49.8374 39.4719 49.8229 39.4801C49.6205 39.5877 49.5449 39.7062 49.5522 39.9541C49.5859 41.0724 48.3145 41.93 47.2609 41.518C46.756 41.3203 46.5127 40.7935 46.5902 40.0634C46.6102 39.8666 46.6512 39.7016 46.7141 39.5649C46.8526 39.2623 47.0987 39.0964 47.4851 39.0299C47.5754 39.0144 47.6647 38.9953 47.7558 38.9907C48.6007 38.9406 48.5232 38.9661 48.4093 38.1622C48.3783 37.9462 48.3482 37.7302 48.3127 37.5133C48.2316 37.0202 47.5416 36.9756 47.3894 37.4513C47.3676 37.5188 47.3457 37.5871 47.322 37.6546C47.106 38.2844 46.88 38.9087 46.5975 39.5093C46.4744 39.7727 46.3395 40.0324 46.191 40.2849C45.8155 40.9211 45.368 41.488 44.7391 41.8899C43.8432 42.4623 42.8434 42.4249 42.0378 41.7377C41.7698 41.5089 41.6887 41.5909 41.5502 41.8316C41.264 42.3265 40.8939 42.7411 40.3571 42.9808C39.4849 43.37 38.6373 42.9189 38.4861 41.971C38.384 41.3303 38.5088 40.6978 38.6164 40.0707C38.8451 38.7391 39.1012 37.4121 39.3218 36.0797C39.3838 35.7023 39.5205 35.5191 39.8951 35.6139C40.0117 35.6431 40.1311 35.6604 40.2514 35.6622C40.5695 35.6686 40.6433 35.8245 40.5768 36.148C40.3134 37.4422 40.0646 38.7391 39.8258 40.0379C39.7438 40.4845 39.7055 40.9402 39.659 41.3923C39.6472 41.5034 39.5998 41.6575 39.7474 41.714C39.8504 41.7541 39.9598 41.683 40.029 41.6028C40.8156 40.695 41.5146 39.7463 41.3442 38.4429C41.1692 37.1059 42.1544 35.13 43.3328 34.471C44.3855 33.8823 45.4883 34.5011 45.5275 35.7087C45.5712 37.0166 45.0426 38.1021 44.164 39.0262C43.784 39.4254 43.2936 39.6433 42.7195 39.5148C42.4114 39.4464 42.3804 39.5786 42.4388 39.8246C42.508 40.1227 42.591 40.4125 42.7815 40.6604C43.1114 41.0888 43.5971 41.1763 44.1194 40.8618C44.7765 40.4663 45.2541 39.8921 45.5703 39.2058C46.2274 37.7813 46.6904 36.2893 47.0522 34.7654C47.1534 34.337 47.2555 33.9078 47.3284 33.4739C47.3758 33.1923 47.5088 33.0793 47.7877 33.1076C47.9381 33.1231 48.0912 33.1121 48.2425 33.1185C48.5861 33.1331 48.7365 33.3117 48.6672 33.6353C48.618 33.8658 48.639 34.1074 48.7073 34.3334C49.0254 35.3915 49.2715 36.4688 49.5194 37.5461C49.5522 37.6874 49.534 37.8824 49.7126 37.918C49.9003 37.9553 50.326 37.7393 50.4563 37.6281C50.7388 37.3884 51.0204 37.0913 51.2665 36.4761C52.3046 33.7483 52.8323 30.8974 52.8323 28C52.8323 14.3079 41.6923 3.16779 28.0005 3.16779C14.3086 3.16779 3.16777 14.3079 3.16777 28C3.16777 41.6921 14.3077 52.8323 28.0005 52.8323C32.696 52.8323 37.345 51.3931 41.4463 48.6689L42.0505 49.5804C37.7706 52.423 32.912 53.9259 28.0005 53.9259C21.0748 53.9259 14.5647 51.23 9.66782 46.333C4.77091 41.436 2.0741 34.9258 2.0741 28C2.0741 21.0742 4.77091 14.5649 9.66782 9.66795C14.5647 4.77095 21.0748 2.0741 28.0005 2.0741C34.9262 2.0741 41.4353 4.77095 46.3322 9.66795C51.2291 14.5649 53.9259 21.0751 53.9259 28ZM48.1833 40.2576C48.2079 40.1856 48.1714 40.1482 48.1003 40.1455C47.9873 40.1409 47.8907 40.1783 47.8543 40.2913C47.8278 40.3751 47.8798 40.428 47.9682 40.448C48.0812 40.4344 48.1477 40.3615 48.1833 40.2576ZM42.8935 38.3208C43.6983 38.1367 44.4274 37.1287 44.422 36.1872C44.4101 35.9284 44.4147 35.6513 44.1248 35.5319C43.8213 35.407 43.5962 35.5939 43.4094 35.7935C42.8425 36.3977 42.5372 37.1223 42.4461 37.9444C42.406 38.3108 42.5536 38.3992 42.8935 38.3208Z" fill="#0D272C"/>
<path d="M50.0306 24.5667C50.1874 25.5347 50.1382 26.4798 49.5184 27.3064C49.0873 27.8815 48.4913 28.1486 47.7831 28.1513C47.2554 28.154 46.951 27.8205 46.9848 27.3201C47.023 26.7651 47.3794 26.4297 47.8879 26.4698C48.4257 26.5126 48.6727 26.3358 48.803 25.8135C48.8659 25.5611 48.8905 25.3077 48.8458 25.0471C48.7082 24.2423 48.3063 23.5469 47.9153 22.6892C47.7604 23.2762 47.6382 23.7337 47.5179 24.1912C47.1898 25.4426 46.7587 26.6548 46.1362 27.7949C45.8665 28.2898 45.5593 28.762 45.1337 29.1384C44.3353 29.8411 43.3529 29.5977 42.9728 28.6025C42.7677 28.0647 42.7313 27.5051 42.8534 26.9437C43.0794 25.9056 43.3155 24.8702 43.5479 23.8331C43.6181 23.5204 43.6454 23.2024 43.6308 22.8834C43.609 22.3739 43.3656 22.2262 42.9172 22.4705C42.323 22.7931 41.963 23.3245 41.7971 23.9588C41.551 24.8976 41.3633 25.8518 41.1391 26.797C40.9468 27.6081 40.739 28.4165 40.5339 29.2259C40.5011 29.3571 40.4583 29.4893 40.4027 29.6132C40.2505 29.9477 39.9926 30.1072 39.6298 29.9924C39.2853 29.883 39.2999 29.5922 39.3555 29.3134C39.6289 27.9289 39.9087 26.5454 40.1867 25.1619C40.2924 24.6387 40.3699 24.1147 40.3179 23.5797C40.2705 23.0884 39.967 22.8861 39.4995 23.041C39.0465 23.1914 38.7941 23.5514 38.589 23.9497C38.2317 24.6451 38.0832 25.4098 37.869 26.1526C37.561 27.2162 37.2775 28.288 36.9467 29.3453C36.6714 30.2257 36.1365 30.9019 35.2278 31.2155C34.5178 31.4597 33.899 31.2893 33.4524 30.6777C33.241 30.3879 33.1225 30.4098 32.9302 30.6796C32.6385 31.0915 32.2749 31.4379 31.842 31.7012C30.8422 32.3092 29.8852 32.1296 29.2153 31.1763C29.003 30.8737 28.9082 30.8564 28.6867 31.1617C28.1016 31.9692 27.3443 32.568 26.3718 32.8414C25.2927 33.1449 24.3512 32.907 23.6331 32.0166C23.4307 31.765 23.3414 31.7842 23.1992 32.0476C22.9149 32.5735 22.5521 33.0428 22.0755 33.4065C21.5587 33.8011 20.9827 34.0609 20.3429 33.7574C19.6767 33.442 19.3659 32.8478 19.3741 32.1287C19.3933 30.5547 19.8727 29.0837 20.4459 27.6382C20.5015 27.4978 20.5644 27.3611 20.6428 27.1797C20.2372 27.2107 19.9018 27.3967 19.5327 27.4422C19.3304 27.4668 19.3951 27.7211 19.3823 27.8724C19.2702 29.2304 18.8264 30.4763 18.1374 31.6438C17.9988 31.879 17.904 32.0758 17.5568 31.8981C17.2424 31.7377 17.2378 31.5572 17.3426 31.2765C17.8093 30.0233 18.1738 28.7401 18.5056 27.445C18.5794 27.1561 18.5612 26.951 18.3342 26.714C17.7664 26.1216 17.6726 24.8985 18.0936 24.194C18.3388 23.7857 18.7033 23.6052 19.0761 23.71C19.4562 23.8167 19.7223 24.1885 19.7177 24.6324C19.715 24.8876 19.7132 25.1409 19.6521 25.3989C19.5737 25.7297 19.7305 25.8527 20.0522 25.7388C20.3147 25.6468 20.5726 25.5365 20.8269 25.4226C21.4238 25.1537 22.0791 25.5383 22.1284 26.1918C22.1566 26.5645 22.0737 26.9054 21.8978 27.2408C21.1723 28.6298 20.7503 30.1127 20.6145 31.6721C20.5872 31.9911 20.4796 32.4203 20.8415 32.5789C21.2434 32.7548 21.5168 32.3866 21.7383 32.1114C22.3398 31.3631 22.8529 30.5957 22.8803 29.5549C22.9167 28.1887 23.1336 26.8881 23.9466 25.6732C24.5381 24.7891 25.9316 23.813 26.9842 23.9816C27.6295 24.0855 28.0533 24.4492 28.2329 25.089C28.6475 26.5664 27.7289 28.3473 26.2333 28.9597C25.6673 29.1903 25.0813 29.3516 24.4761 29.4182C24.1726 29.451 24.0933 29.585 24.1188 29.862C24.1753 30.4636 24.4178 30.9758 24.8653 31.375C25.3128 31.7751 25.8942 31.8024 26.4775 31.4798C26.8685 31.2638 27.1984 30.9694 27.4627 30.6139C28.2666 29.5303 28.9064 28.3728 29.1096 27.0084C29.2746 25.9047 29.7321 24.9195 30.4238 24.0445C31.4984 22.6838 32.7215 22.4823 34.2553 23.5059C34.0913 22.5717 34.711 22.5844 35.2807 22.5142C36.079 22.4167 36.0772 22.4085 35.8475 23.1914C35.3007 25.0562 34.8596 26.9483 34.3775 28.8294C34.32 29.0518 34.2845 29.276 34.3091 29.5057C34.331 29.7171 34.4285 29.8803 34.6308 29.965C34.8432 30.0534 35.0191 29.9705 35.1704 29.8283C35.5595 29.4592 35.75 28.9798 35.8895 28.4785C36.3078 26.9729 36.7188 25.4645 37.1353 23.9579C37.2493 23.5487 37.3687 23.1404 37.4926 22.7339C37.5464 22.5607 37.612 22.3903 37.6876 22.2253C37.8098 21.9556 38.0622 21.8881 38.3238 21.8517C38.6054 21.8125 38.6528 22.0467 38.7212 22.2736C38.8643 22.1661 38.9682 22.0832 39.0775 22.0066C39.7383 21.5427 40.4391 21.5491 41.0425 22.0731C41.2603 22.2627 41.3523 22.2691 41.52 22.033C41.7506 21.7086 42.0632 21.4616 42.4305 21.2966C43.6645 20.7406 44.8111 21.4497 44.8676 22.8032C44.8913 23.371 44.7637 23.9196 44.6407 24.4665C44.4383 25.3697 44.2232 26.2702 44.0173 27.1725C43.9872 27.3055 43.9644 27.4431 43.9671 27.578C43.9717 27.8387 43.8086 28.2005 44.1184 28.3199C44.4711 28.4566 44.637 28.0857 44.802 27.8487C45.5757 26.7341 46.0077 25.469 46.3368 24.1703C46.6156 23.0675 46.8508 21.9528 47.0814 20.8382C47.1716 20.3998 47.3584 20.0771 47.7995 19.9322C47.9991 19.8666 48.1942 19.8593 48.3591 19.9997C48.5359 20.1491 48.5378 20.3497 48.4357 20.5383C48.2999 20.7908 48.4393 20.9749 48.5624 21.1635C49.2496 22.2135 49.8283 23.3126 50.0306 24.5667ZM33.7468 25.6003C33.8634 25.037 33.621 24.6615 33.1781 24.3744C32.7397 24.0892 32.2548 24.1119 31.8155 24.4218C31.3371 24.76 31.0591 25.2466 30.8394 25.768C30.3683 26.8881 30.1905 28.0702 30.1459 29.2742C30.1459 29.4564 30.1295 29.6406 30.1486 29.8201C30.2388 30.6677 30.8157 30.9211 31.5248 30.428C31.8283 30.2166 32.058 29.934 32.2649 29.6314C33.096 28.412 33.4515 27.0184 33.7468 25.6003ZM27.0107 26.2146C27.048 25.9165 27.1055 25.5866 26.7783 25.3998C26.4438 25.2093 26.0774 25.2412 25.794 25.4727C24.9026 26.1991 24.5855 27.2281 24.2902 28.3773C25.1569 28.1267 25.8806 27.8487 26.4611 27.2836C26.7637 26.9902 26.9587 26.6338 27.0107 26.2146Z" fill="#0D272C"/>
<path d="M46.1281 45.1947C46.581 45.1983 46.9565 45.5656 46.9456 45.9949C46.9383 46.251 46.4799 46.6602 46.1964 46.6638C45.6715 46.6693 45.2932 46.3549 45.2951 45.9138C45.2969 45.5146 45.6715 45.1919 46.1281 45.1947Z" fill="#0D272C"/>
<path d="M39.9953 13.2954C41.7415 13.3008 43.1742 14.7764 43.1633 16.5582C43.1506 18.4466 41.757 19.8056 39.8404 19.7983C38.0878 19.7928 36.6769 18.3491 36.6942 16.5792C36.7107 14.8202 38.2491 13.2899 39.9953 13.2954ZM41.8473 16.601C41.8673 15.5083 41.0726 14.6689 40.0017 14.6524C38.9171 14.6351 38.0276 15.5064 38.0158 16.5956C38.0039 17.6492 38.8506 18.5214 39.8951 18.5323C40.9441 18.5433 41.8281 17.6683 41.8473 16.601Z" fill="#0D272C"/>
<path d="M40.0017 14.6525C41.0726 14.6689 41.8673 15.5083 41.8472 16.6011C41.8281 17.6683 40.9441 18.5433 39.895 18.5323C38.8506 18.5214 38.0039 17.6492 38.0157 16.5956C38.0276 15.5065 38.9171 14.6352 40.0017 14.6525Z" fill="#CF7E85"/>
<path d="M41.1455 33.7547C41.1482 34.3398 40.8365 34.7244 40.3571 34.7271C39.8012 34.7317 39.4385 34.3115 39.4321 33.659C39.4266 33.113 39.7665 32.7685 40.3034 32.7758C40.8201 32.7831 41.1418 33.1577 41.1455 33.7547Z" fill="#0D272C"/>
<path d="M38.3092 43.0538C38.5107 43.2233 38.7194 43.4019 38.4177 43.6243C38.1744 43.8038 37.9839 44.204 37.5491 43.8604C36.8392 43.2989 36.2559 42.6281 35.7118 41.9154C35.5942 41.7614 35.4839 41.5964 35.2315 41.4825C35.134 42.341 35.0319 43.1531 34.9535 43.967C34.9152 44.3726 34.7585 44.5667 34.3183 44.5293C33.899 44.4929 33.7049 44.306 33.7496 43.8895C33.8106 43.3162 33.8872 42.7448 33.9373 42.1715C33.9491 42.0375 34.0941 41.786 33.8279 41.7833C33.6092 41.7805 33.2811 41.7103 33.2246 42.0995C33.1827 42.3839 33.1161 42.6655 33.0578 42.948C32.8628 43.8813 32.3524 44.6077 31.6087 45.1928C31.0865 45.6039 30.5023 45.726 29.8989 45.4981C29.3065 45.2739 29.1388 44.7216 29.0522 44.142C28.9966 43.7674 29.1033 43.3645 28.9046 42.9863C28.6786 43.1221 28.7496 43.309 28.7332 43.4584C28.6038 44.6305 28.1308 45.6485 27.337 46.5098C26.6644 47.2399 25.8769 47.2945 25.1278 46.6502C24.827 46.3913 24.7049 46.4214 24.4971 46.745C24.0815 47.3921 23.5492 47.9289 22.8001 48.1996C21.9142 48.5204 21.0876 48.2287 20.6064 47.423C19.8308 46.1243 19.777 44.7116 20.0194 43.2761C20.374 41.1744 21.2452 39.2833 22.4802 37.5561C22.8411 37.0512 23.3177 36.6794 23.8965 36.4479C24.7796 36.0951 25.6491 36.5126 25.9107 37.4249C26.2123 38.4748 25.7986 39.3944 25.3401 40.2949C25.1551 40.6595 24.9245 41.0013 24.622 41.2856C24.0277 41.8434 23.418 41.7732 23.0061 41.0769C22.791 40.7142 22.6214 40.325 22.4 39.8848C21.7739 41.2045 21.2689 42.4942 21.1942 43.9132C21.1596 44.5658 21.1441 45.2211 21.2817 45.8645C21.382 46.3312 21.5141 46.8015 22.0363 46.9719C22.5741 47.1469 22.9678 46.8625 23.3296 46.5062C24.1672 45.6813 24.7167 44.6852 25.1515 43.6006C25.5899 42.5051 26 41.3877 26.6972 40.4152C26.997 39.9969 27.3899 39.7499 27.9276 39.7636C28.1682 39.7699 28.3213 39.8538 28.4215 40.0816C28.6257 40.5465 28.7542 41.0277 28.7579 41.5344C28.7606 41.9236 28.9356 41.8972 29.1744 41.7304C29.5444 41.4725 29.8132 41.1298 29.9828 40.7096C30.1988 40.1746 30.4221 39.6424 30.7702 39.1757C31.4793 38.2224 32.8254 38.2607 33.3458 39.2422C33.4725 39.481 33.477 39.7335 33.4944 39.9923C33.5035 40.1245 33.3704 40.3851 33.6712 40.3487C33.8872 40.3232 34.1688 40.366 34.2098 40.0005C34.3183 39.0509 34.4604 38.1048 34.5744 37.156C34.7512 35.6795 34.9389 34.204 35.0747 32.7239C35.1376 32.0376 35.5942 32.4222 35.8777 32.3702C36.244 32.3046 36.2486 32.5634 36.2176 32.8314C36.1155 33.7364 36.0326 34.6433 35.915 35.5465C35.874 35.8591 35.8922 35.9712 36.265 35.9275C37.8308 35.7424 38.6911 36.7486 38.3266 38.3035C38.0222 39.6059 37.2684 40.4025 36.0016 40.7087C36.8583 41.4378 37.4735 42.352 38.3092 43.0538ZM36.1274 39.5148C36.7745 39.2258 37.3331 38.2998 37.2912 37.5844C37.263 37.0831 36.8319 36.8361 36.3853 37.0694C36.1173 37.2098 35.9579 37.4468 35.8366 37.7175C35.6708 38.0884 35.6771 38.4867 35.6352 38.8777C35.6261 38.9688 35.6152 39.0591 35.6088 39.1502C35.5705 39.6624 35.658 39.7244 36.1274 39.5148ZM32.5502 40.1819C32.5729 39.934 32.5647 39.6351 32.254 39.6187C32.0133 39.605 31.8557 39.7426 31.7609 39.9531C31.6953 40.099 31.6789 40.2667 31.7272 40.4189C31.7727 40.5611 31.863 40.6759 32.0699 40.6978C32.4417 40.737 32.5228 40.4708 32.5502 40.1819ZM32.0462 42.3374C32.0735 42.2544 32.1245 42.1205 32.017 42.0986C31.6369 42.0229 31.3225 41.8088 30.9762 41.6247C30.9005 41.6775 30.8112 41.7149 30.7602 41.7805C30.3045 42.3638 30.0566 43.0182 30.1496 43.7674C30.1796 44.0071 30.2288 44.2678 30.5132 44.347C30.8185 44.4327 31.0391 44.2714 31.2204 44.0481C31.6324 43.5441 31.8466 42.9435 32.0462 42.3374ZM27.8957 41.5253C27.9257 41.2947 27.9358 40.654 27.7307 40.6294C27.388 40.5893 27.2659 41.3804 27.2604 41.5308C27.2504 41.8644 27.4053 42.0157 27.5867 42.0029C27.7581 41.9911 27.8811 41.6365 27.8957 41.5253ZM27.4938 44.1201C27.8501 42.9854 27.9385 43.2625 26.7829 42.9699C26.6462 42.9353 26.5468 42.9562 26.4894 43.0957C26.1768 43.8512 25.9398 44.6314 25.7466 45.3669C25.7402 45.8217 26.0173 46.0022 26.3819 45.8299C26.6197 45.7178 26.7947 45.5301 26.9342 45.3077C27.1693 44.9349 27.3616 44.5403 27.4938 44.1201ZM24.8307 38.3217C24.8361 38.0775 24.8425 37.8204 24.58 37.6919C24.3203 37.5634 24.1125 37.7147 23.9229 37.8724C23.6531 38.0957 23.4335 38.3655 23.2421 38.6589C23.1537 38.7938 23.1109 38.9223 23.1728 39.0837C23.3232 39.4829 23.5365 39.8492 23.7497 40.2156C23.8473 40.3824 23.9402 40.3797 24.0523 40.2238C24.4652 39.6524 24.8279 39.0618 24.8307 38.3217Z" fill="#0D272C"/>
<path d="M34.6008 47.5716C35.0446 47.5807 35.3791 47.897 35.3673 48.2953C35.3554 48.7063 35.0164 49.0162 34.5862 49.0098C34.1533 49.0044 33.8188 48.6562 33.8279 48.2215C33.8352 47.8359 34.1615 47.5625 34.6008 47.5716Z" fill="#0D272C"/>
<path d="M34.5014 10.8555C34.5014 13.1532 32.6404 14.9942 30.3072 15.0033C28.0233 15.0124 26.1777 13.0265 26.1813 10.5629C26.185 8.36827 28.0871 6.47619 30.2917 6.47345C32.6823 6.47072 34.5014 8.36371 34.5014 10.8555ZM33.2054 10.8081C33.2191 9.16484 31.9368 7.78862 30.3847 7.78132C28.7533 7.77494 27.5229 8.97891 27.5029 10.603C27.4819 12.28 28.7496 13.6836 30.3008 13.7009C31.8602 13.7182 33.1927 12.3912 33.2054 10.8081Z" fill="#0D272C"/>
<path d="M30.3847 7.78134C31.9368 7.78863 33.2191 9.16485 33.2055 10.8081C33.1927 12.3912 31.8603 13.7182 30.3009 13.7009C28.7497 13.6836 27.4819 12.28 27.5029 10.6031C27.5229 8.97893 28.7533 7.77496 30.3847 7.78134Z" fill="#CF7E85"/>
<path d="M29.9044 18.3473C30.3227 18.361 30.6982 18.7911 30.6918 19.2487C30.6855 19.6488 30.3473 19.9423 29.8962 19.9395C29.4277 19.9368 29.0687 19.5905 29.0796 19.1512C29.0905 18.7246 29.4897 18.3345 29.9044 18.3473Z" fill="#0D272C"/>
<path d="M25.0849 19.6114C25.0886 20.1856 24.6292 20.6513 24.0496 20.6641C23.4563 20.6778 23.0024 20.2303 23.0097 19.6397C23.017 19.0454 23.4654 18.6098 24.0596 18.6198C24.6584 18.6298 25.0822 19.04 25.0849 19.6114Z" fill="#0D272C"/>
<path d="M23.0152 6.82527C23.4654 6.84349 23.758 7.14973 23.7407 7.58538C23.7233 8.04382 23.3305 8.42479 22.8839 8.41568C22.4337 8.40656 22.1639 8.114 22.1749 7.64918C22.1876 7.15884 22.5467 6.80613 23.0152 6.82527Z" fill="#0D272C"/>
<path d="M18.0107 10.3634C19.7424 10.3825 21.2061 11.91 21.1951 13.6854C21.1842 15.4463 19.7205 16.8991 17.9652 16.8927C16.095 16.8854 14.6331 15.4153 14.6559 13.5615C14.6778 11.8025 16.208 10.3433 18.0107 10.3634ZM19.8335 13.7028C19.8472 12.579 19.0525 11.7606 17.9442 11.7569C16.8815 11.7533 16.0075 12.5881 15.9929 13.6226C15.9774 14.6652 16.8642 15.5475 17.9351 15.5557C18.975 15.5639 19.8208 14.7381 19.8335 13.7028Z" fill="#0D272C"/>
<path d="M17.9442 11.7569C19.0524 11.7606 19.8472 12.579 19.8335 13.7028C19.8207 14.7381 18.975 15.5639 17.9351 15.5557C16.8642 15.5475 15.9774 14.6652 15.9929 13.6226C16.0075 12.5881 16.8815 11.7533 17.9442 11.7569Z" fill="#CF7E85"/>
<path d="M17.9916 40.4881C18.2887 40.7926 18.4309 41.1662 18.2987 41.5736C17.9014 42.7949 17.6908 44.0909 16.9298 45.1737C16.7703 45.4015 16.8296 45.5574 17.0255 45.7123C17.4302 46.0332 17.8193 46.374 18.2368 46.6766C18.5211 46.8817 18.4892 47.0357 18.2532 47.2435C17.7109 47.7211 17.5796 47.7676 17.0392 47.2645C16.5051 46.7668 16.1706 46.3376 15.4105 46.601C15.231 46.6638 14.9065 46.7131 14.7179 46.7358C14.2813 46.7887 13.7308 46.6757 13.3608 46.4624C11.5781 45.4325 10.3532 43.689 10.7779 41.8598C10.9465 41.1362 11.4697 40.5592 12.1432 40.2448C12.3993 40.1254 12.4631 39.9686 12.4357 39.6815C12.32 38.4812 12.6782 37.4285 13.5176 36.5581C14.4709 35.5684 15.8972 35.706 16.3438 36.8507C16.7284 37.8369 16.5844 38.7993 15.9583 39.656C15.5518 40.2129 14.963 40.5419 14.3159 40.7515C14.0234 40.8463 13.9833 40.953 14.1309 41.2282C14.6395 42.1779 15.1134 43.1467 15.7095 44.0463C15.7815 44.1547 15.817 44.2997 16.0057 44.3625C16.4313 43.6316 16.7758 42.8651 16.9626 42.0302C17.0128 41.8069 16.8688 41.6602 16.7567 41.4989C16.4705 41.0897 16.4641 40.5656 16.7393 40.3332C17.0419 40.0789 17.6635 40.1518 17.9916 40.4881ZM13.8411 39.78C14.6504 39.6442 15.488 38.4575 15.4233 37.6482C15.3868 37.1907 15.0706 37.0184 14.706 37.3019C14.079 37.7895 13.7281 38.2433 13.462 38.8822C13.2031 39.5047 13.4273 39.8483 13.8411 39.78ZM14.8446 45.4799C15.0751 45.3642 15.0715 45.2038 14.9785 45.1108C14.1428 44.0226 13.4884 42.8268 12.9161 41.5855C12.7757 41.2811 12.6399 41.3248 12.4576 41.5235C12.0183 42.0011 11.8078 42.5598 11.9773 43.1959C12.2398 44.1812 12.8386 44.9194 13.7436 45.3988C14.1455 45.6194 14.6122 45.5957 14.8446 45.4799Z" fill="#0D272C"/>
<path d="M16.8159 24.2223C16.9726 24.924 17.0009 25.6358 16.9918 26.3549C16.8013 28.947 16.1478 31.3768 14.4454 33.4229C13.9286 34.0427 13.3325 34.595 12.577 34.9185C11.4323 35.408 10.3268 35.3533 9.31604 34.5749C9.13467 34.4355 9.04991 34.4428 8.92414 34.6187C8.81022 34.7773 8.67533 34.9267 8.52951 35.0571C7.83047 35.6832 6.91543 35.7497 6.18723 35.2375C5.47087 34.7344 5.20384 33.9324 5.51098 33.2069C5.86824 32.362 6.74409 31.879 7.65548 32.0248C7.91159 32.0658 8.17406 32.1151 8.38824 32.2591C8.73275 32.4915 8.85488 32.3311 8.94875 32.0093C9.19209 31.1827 9.47735 30.3661 9.75442 29.5549C10.1873 28.2899 10.5464 27.002 10.9894 25.7416C11.2327 25.0489 11.4605 24.3508 11.6747 23.649C11.8105 23.2069 12.0903 23.2015 12.4585 23.3154C12.834 23.4311 13.0883 23.5742 12.9215 24.0491C11.9135 26.9109 11.1571 29.8575 9.99958 32.6692C9.98865 32.6965 9.98045 32.7266 9.9686 32.7539C9.67786 33.4257 9.7535 33.6006 10.4872 33.8066C11.4961 34.0901 12.3419 33.7346 13.071 33.0584C14.0571 32.1451 14.6149 30.9694 15.0332 29.719C15.5901 28.0575 15.9008 26.3677 15.56 24.6151C15.1143 22.3165 13.2113 21.3386 11.0723 22.2992C9.40171 23.0484 8.09842 25.1173 8.13578 26.9419C8.14125 27.2044 8.20779 27.4495 8.26976 27.6975C8.37822 28.1331 8.21234 28.546 7.86419 28.679C7.5452 28.8012 7.23168 28.6016 7.04667 28.1459C6.71401 27.3256 6.83979 26.4989 7.05214 25.6851C7.57619 23.6781 8.66804 22.1005 10.5811 21.1827C13.3717 19.8448 16.1405 21.2 16.8159 24.2223ZM7.32009 34.3343C7.60809 34.3343 8.19594 33.7902 8.13214 33.5168C8.05012 33.1623 7.67553 33.1996 7.43857 33.1185C7.06764 33.1285 6.78055 33.4038 6.77873 33.7164C6.77599 34.039 7.03573 34.3352 7.32009 34.3343Z" fill="#0D272C"/>
<path d="M11.6346 16.6193C11.6373 17.0322 11.1999 17.4787 10.7916 17.4806C10.4225 17.4824 9.95856 17.0249 9.95674 16.6548C9.954 16.2064 10.386 15.7443 10.8071 15.7462C11.2208 15.7462 11.6319 16.1809 11.6346 16.6193Z" fill="#0D272C"/>
</svg>
