<svg width="32" height="32" viewBox="0 0 32 32" fill="none" xmlns="http://www.w3.org/2000/svg">
<path d="M27.6667 19.3334L26.3267 28.7101C26.21 29.5218 26.1533 29.9284 25.9567 30.2351C25.7839 30.5039 25.5374 30.7174 25.2467 30.8501C24.9183 31.0001 24.5083 31.0001 23.6917 31.0001H19.3333M27.6667 19.3334H19.3333M27.6667 19.3334C29.8383 18.3268 31 15.6068 31 13.2234C31 10.6634 29.2833 8.47342 26.85 7.56176C26.6023 7.46862 26.3885 7.30274 26.2368 7.08589C26.0851 6.86905 26.0026 6.61139 26 6.34676C26 4.23842 24.1333 2.52676 21.8333 2.52676C21.4567 2.52676 21.0917 2.57342 20.7433 2.66009C20.0233 2.83842 19.2183 2.79842 18.5983 2.41842C17.0627 1.4833 15.2979 0.992331 13.5 1.00009C8.43667 1.00009 4.33333 4.76176 4.33333 9.40342C4.33333 9.99009 3.95 10.5268 3.405 10.8318C1.96333 11.6334 1 13.0901 1 14.7501C1 16.8784 2.18667 18.8168 4.33333 19.3334M19.3333 31.0001V19.3334M19.3333 31.0001H12.6667M19.3333 19.3334H12.6667M4.33333 19.3334L5.67333 28.7101V28.7134C5.79 29.5234 5.84667 29.9301 6.04333 30.2351C6.21614 30.5039 6.4626 30.7174 6.75333 30.8501C7.08167 31.0001 7.49167 31.0001 8.30833 31.0001H12.6667M4.33333 19.3334H12.6667M12.6667 31.0001V19.3334" stroke="black" stroke-width="2" stroke-linecap="round" stroke-linejoin="round"/>
</svg>
